<svg width="25" height="25" viewBox="0 0 40 40" fill="none" xmlns="http://www.w3.org/2000/svg">
<g clipPath="url(#clip0_2011_686)">
<path d="M37.4996 0H8.75025C8.05963 0 7.50026 0.559371 7.50026 1.24999V36.8742C7.50026 38.5998 6.1009 39.9991 4.37537 39.9991H35.6247C37.3503 39.9991 38.7495 38.5997 38.7495 36.8742V1.24999C38.7495 0.559371 38.1896 0 37.4996 0Z" fill="#E2E7F0"/>
<path d="M2.50036 11.2498C1.80974 11.2498 1.25037 11.8091 1.25037 12.4997V36.8742C1.25037 38.5998 2.64973 39.9991 4.37526 39.9991C6.1008 39.9991 7.50016 38.5997 7.50016 36.8742V11.2498H2.50036Z" fill="#C9D5E3"/>
<path d="M10.6252 13.7497H21.25C21.595 13.7497 21.875 14.0297 21.875 14.3747V21.8745C21.875 22.2195 21.595 22.4995 21.25 22.4995H10.6252C10.2802 22.4995 10.0002 22.2195 10.0002 21.8745V14.3747C10.0002 14.0297 10.2796 13.7497 10.6252 13.7497Z" fill="#F6B545"/>
<path d="M10.6252 25.6244H15.0001C15.3451 25.6244 15.6251 25.9044 15.6251 26.2494V33.7493C15.6251 34.0943 15.3451 34.3743 15.0001 34.3743H10.6252C10.2802 34.3743 10.0002 34.0943 10.0002 33.7493V26.2494C10.0002 25.9044 10.2796 25.6244 10.6252 25.6244Z" fill="#4C9CD6"/>
<path d="M31.2498 25.6244H35.6246C35.9696 25.6244 36.2496 25.9044 36.2496 26.2494V33.7493C36.2496 34.0943 35.9696 34.3743 35.6246 34.3743H31.2498C30.9048 34.3743 30.6248 34.0943 30.6248 33.7493V26.2494C30.6248 25.9044 30.9041 25.6244 31.2498 25.6244Z" fill="#4C9CD6"/>
<path d="M29.3748 14.9996H24.3749C24.0299 14.9996 23.7499 14.7196 23.7499 14.3747C23.7499 14.0297 24.0299 13.7497 24.3749 13.7497H29.3748C29.7198 13.7497 29.9998 14.0297 29.9998 14.3747C29.9998 14.7196 29.7198 14.9996 29.3748 14.9996Z" fill="#123247"/>
<path d="M35.6246 17.4996H24.3749C24.0299 17.4996 23.7499 17.2196 23.7499 16.8746C23.7499 16.5296 24.0299 16.2496 24.3749 16.2496H35.6246C35.9696 16.2496 36.2496 16.5296 36.2496 16.8746C36.2496 17.2196 35.9696 17.4996 35.6246 17.4996Z" fill="#576D7E"/>
<path d="M35.6247 9.99977H10.6252C10.2802 9.99977 10.0002 9.71977 10.0002 9.37477C10.0002 9.02977 10.2802 8.74977 10.6252 8.74977H35.6247C35.9697 8.74977 36.2496 9.02977 36.2496 9.37477C36.2496 9.71977 35.9697 9.99977 35.6247 9.99977Z" fill="#C9D5E3"/>
<path d="M35.6246 19.9995H24.3749C24.0299 19.9995 23.7499 19.7195 23.7499 19.3745C23.7499 19.0295 24.0299 18.7495 24.3749 18.7495H35.6246C35.9696 18.7495 36.2496 19.0295 36.2496 19.3745C36.2496 19.7195 35.9696 19.9995 35.6246 19.9995Z" fill="#576D7E"/>
<path d="M35.6246 22.4995H24.3749C24.0299 22.4995 23.7499 22.2195 23.7499 21.8745C23.7499 21.5295 24.0299 21.2495 24.3749 21.2495H35.6246C35.9696 21.2495 36.2496 21.5295 36.2496 21.8745C36.2496 22.2195 35.9696 22.4995 35.6246 22.4995Z" fill="#576D7E"/>
<path d="M22.4999 26.8744H18.125C17.78 26.8744 17.5 26.5944 17.5 26.2494C17.5 25.9044 17.78 25.6244 18.125 25.6244H22.4999C22.8449 25.6244 23.1249 25.9044 23.1249 26.2494C23.1249 26.5944 22.8449 26.8744 22.4999 26.8744Z" fill="#123247"/>
<path d="M28.1248 29.3743H18.125C17.78 29.3743 17.5 29.0943 17.5 28.7493C17.5 28.4043 17.78 28.1243 18.125 28.1243H28.1248C28.4698 28.1243 28.7498 28.4043 28.7498 28.7493C28.7498 29.0943 28.4698 29.3743 28.1248 29.3743Z" fill="#576D7E"/>
<path d="M28.1248 31.8743H18.125C17.78 31.8743 17.5 31.5943 17.5 31.2493C17.5 30.9043 17.78 30.6243 18.125 30.6243H28.1248C28.4698 30.6243 28.7498 30.9043 28.7498 31.2493C28.7498 31.5943 28.4698 31.8743 28.1248 31.8743Z" fill="#576D7E"/>
<path d="M28.1248 34.3742H18.125C17.78 34.3742 17.5 34.0942 17.5 33.7492C17.5 33.4042 17.78 33.1242 18.125 33.1242H28.1248C28.4698 33.1242 28.7498 33.4042 28.7498 33.7492C28.7498 34.0942 28.4698 34.3742 28.1248 34.3742Z" fill="#576D7E"/>
<path d="M37.4996 2.49998V36.8742C37.4996 37.9098 36.6602 38.7492 35.6246 38.7492H11.144C9.16462 38.7998 7.20597 39.1692 5.34411 39.8429C5.03161 39.9466 4.70411 39.9991 4.37537 39.9991H35.6247C37.3503 39.9991 38.7495 38.5998 38.7495 36.8742V1.24999C38.0589 1.24999 37.4996 1.80936 37.4996 2.49998Z" fill="#C9D5E3"/>
<path d="M16.8751 19.9995C14.7376 20.4683 13.1752 17.6058 11.8752 16.8746C11.2789 16.6059 10.5964 16.6059 10.0002 16.8746V21.8745C10.0002 22.2195 10.2802 22.4995 10.6252 22.4995H21.2499C21.5949 22.4995 21.8749 22.2195 21.8749 21.8745V17.4246C20.35 17.4996 18.75 19.587 16.8751 19.9995Z" fill="#F19920"/>
<path d="M12.8127 30.6243C13.6756 30.6243 14.3752 29.9247 14.3752 29.0618C14.3752 28.1989 13.6756 27.4993 12.8127 27.4993C11.9497 27.4993 11.2502 28.1989 11.2502 29.0618C11.2502 29.9247 11.9497 30.6243 12.8127 30.6243Z" fill="#3689C9"/>
<path d="M33.4366 30.6243C34.2995 30.6243 34.9991 29.9247 34.9991 29.0618C34.9991 28.1989 34.2995 27.4993 33.4366 27.4993C32.5736 27.4993 31.8741 28.1989 31.8741 29.0618C31.8741 29.9247 32.5736 30.6243 33.4366 30.6243Z" fill="#3689C9"/>
<path d="M33.4372 31.043C32.4434 31.0249 31.4665 31.2962 30.6248 31.8243V33.7493C30.6248 34.0943 30.9048 34.3743 31.2498 34.3743H35.6246C35.9696 34.3743 36.2496 34.0943 36.2496 33.7493V31.8243C35.4078 31.2962 34.4303 31.0249 33.4372 31.043Z" fill="#3689C9"/>
<path d="M12.8126 31.043C11.8189 31.0249 10.842 31.2962 10.0002 31.8243V33.7493C10.0002 34.0943 10.2802 34.3743 10.6252 34.3743H15.0001C15.3451 34.3743 15.6251 34.0943 15.6251 33.7493V31.8243C14.7833 31.2962 13.8058 31.0249 12.8126 31.043Z" fill="#3689C9"/>
<path d="M13.88 7H13.1626L12.9748 6.2H11.8993L11.7135 7H11L12.0624 3H12.8417L13.88 7ZM12.7994 5.39997L12.4928 4.07411C12.4689 3.97351 12.4524 3.85358 12.4433 3.71429H12.427C12.4217 3.83156 12.4046 3.94763 12.3754 4.0625L12.063 5.39997H12.7994Z" fill="#576D7E"/>
<path d="M21.4956 3H18.7444C18.7087 3 18.68 3.03794 18.68 3.08498V3.76745C18.68 3.81449 18.7087 3.85243 18.7444 3.85243H19.7407V6.91502C19.7407 6.96206 19.7695 7 19.8051 7H20.4348C20.4705 7 20.4993 6.96206 20.4993 6.91502V3.85243H21.4956C21.5312 3.85243 21.56 3.81449 21.56 3.76745V3.08498C21.56 3.03794 21.5312 3 21.4956 3Z" fill="#576D7E"/>
<path d="M23.4037 3H22.5964C22.5541 3 22.52 3.04015 22.52 3.08908V6.91092C22.52 6.96024 22.5541 7 22.5964 7H23.4037C23.4459 7 23.48 6.96024 23.48 6.91092V3.08908C23.48 3.04015 23.4459 3 23.4037 3Z" fill="#576D7E"/>
<path d="M26.4827 4.5327C26.4827 4.5327 26.4363 3.98302 26.0067 3.96769C25.5769 3.95269 25.3563 4.38003 25.3563 4.99104C25.3563 5.60205 25.6002 6.09057 26.0185 6.09057C26.4364 6.09057 26.4829 5.47972 26.4829 5.47972L27.284 5.54055C27.284 5.54055 27.3313 6.09223 26.9958 6.51324C26.6608 6.93392 26.249 7.00275 25.962 6.99992C25.6746 6.99725 25.2761 7.00575 24.891 6.50491C24.5054 6.00323 24.44 5.51655 24.44 5.03821C24.44 4.55987 24.513 3.92652 24.9712 3.44651C25.282 3.12 25.5977 3 25.9133 3C27.2314 3 27.32 4.54337 27.32 4.54337L26.4827 4.5327Z" fill="#576D7E"/>
<path d="M31.0728 6.19575H29.3026V3.08498C29.3026 3.03794 29.2638 3 29.2157 3H28.3669C28.3188 3 28.28 3.03794 28.28 3.08498V6.91502C28.28 6.96206 28.3188 7 28.3669 7H31.0732C31.1213 7 31.16 6.96206 31.16 6.91502V6.28073C31.1599 6.25816 31.1507 6.23654 31.1343 6.22062C31.118 6.20469 31.0959 6.19575 31.0728 6.19575Z" fill="#576D7E"/>
<path d="M34.9128 3.80417C34.9604 3.80417 34.9996 3.76624 34.9996 3.7192V3.08497C34.9996 3.03793 34.9604 3 34.9128 3H32.2068C32.1588 3 32.12 3.03793 32.12 3.08497V6.91503C32.12 6.96207 32.1588 7 32.2068 7H34.9131C34.9608 7 35 6.96207 35 6.91503V6.2808C35 6.23376 34.9608 6.19583 34.9131 6.19583H33.1428V5.35941H34.5045C34.5522 5.35941 34.5913 5.32148 34.5913 5.27444V4.64021C34.5913 4.59317 34.5522 4.55524 34.5045 4.55524H33.1428V3.80417H34.9128Z" fill="#576D7E"/>
<path d="M17.7041 6.85652L16.8666 5.59247C17.3005 5.38917 17.6064 4.90801 17.6064 4.3481C17.6064 3.60496 17.0684 3 16.407 3H15.1442C15.1392 3 15.1349 3.00227 15.1302 3.00341H14.9147C14.8734 3.00341 14.84 3.04126 14.84 3.08821V6.91028C14.84 6.95722 14.8734 6.99508 14.9147 6.99508H15.6448C15.6862 6.99508 15.7196 6.95722 15.7196 6.91028V5.69582H16.0077L16.8482 6.96441C16.8633 6.98675 16.8866 7 16.9113 7H17.6414C17.6714 7 17.6988 6.98069 17.7118 6.95041C17.7251 6.92012 17.7221 6.88378 17.7041 6.85652ZM16.3506 4.90119C16.3386 4.90233 16.3266 4.90346 16.3146 4.90346H15.7319C15.7302 4.90346 15.7289 4.90195 15.7272 4.90119C15.7242 4.90044 15.7212 4.89968 15.7192 4.89741C15.7152 4.89324 15.7122 4.88794 15.7122 4.88113V3.81431C15.7122 3.80787 15.7149 3.8022 15.7192 3.79803C15.7212 3.79614 15.7239 3.79538 15.7266 3.79462C15.7286 3.79387 15.7299 3.79197 15.7319 3.79197H16.3143C16.3283 3.79197 16.3423 3.79311 16.3559 3.79462C16.5968 3.81961 16.7862 4.05811 16.7862 4.34772C16.7865 4.63998 16.5941 4.87924 16.3506 4.90119Z" fill="#576D7E"/>
<path d="M7.50024 12.4997C6.80962 12.4997 6.25025 13.059 6.25025 13.7497V33.7492C6.25025 35.8204 4.57152 37.4991 2.50036 37.4991C2.06911 37.4991 1.71912 37.8491 1.71912 38.2803C1.71912 38.4491 1.77412 38.6141 1.87536 38.7491C2.91036 40.1303 4.86901 40.4103 6.25025 39.3753C6.86275 38.9166 7.28524 38.2491 7.43774 37.4991C7.48712 37.2522 7.50774 37.0003 7.50024 36.7491V12.4997Z" fill="#B0C4D9"/>
</g>
<defs>
<clipPath id="clip0_2011_686">
<rect width="40" height="40" fill="white"/>
</clipPath>
</defs>
</svg>
