<svg fill="none" height="24" viewBox="0 0 24 24" width="24" xmlns="http://www.w3.org/2000/svg">
<g stroke="#17191c" stroke-miterlimit="10" stroke-width="1.5">
<g stroke-linecap="round" stroke-linejoin="round">
<path d="m9 8.38086h4.6846c1.0385 0 1.8808.93462 1.8808 1.88074 0 1.0385-.8423 1.8808-1.8808 1.8808h-4.6846z"/>
<path d="m9 12.1309h5.3539c1.1884 0 2.1461.8423 2.1461 1.8807 0 1.0385-.9577 1.8808-2.1461 1.8808h-5.3539z"/>
<path d="m12.2769 15.8809v1.8807"/>
<path d="m9.93457 15.8809v1.8807"/
><path d="m12.2769 6.5v1.88077"/>
<path d="m9.93457 6.5v1.88077"/>
<path d="m10.7769 8.38086h-3.2769"/>
<path d="m10.7769 15.8809h-3.2769"/>
</g>
<path d="m12 22c5.5228 0 10-4.4772 10-10 0-5.52285-4.4772-10-10-10-5.52285 0-10 4.47715-10 10 0 5.5228 4.47715 10 10 10z"/>
</g>
</svg>