<svg xmlns="http://www.w3.org/2000/svg" version="1.1" xmlns:xlink="http://www.w3.org/1999/xlink" width="512" height="512" x="0" y="0" viewBox="0 0 512 512" style="enable-background:new 0 0 512 512" xml:space="preserve" fill-rule="evenodd" class=""><g><path fill-rule="nonzero" d="M256 .09C397.33.09 511.91 114.67 511.91 256S397.33 511.91 256 511.91.09 397.33.09 256 114.67.09 256 .09zm85.72 351.11c-.02.05-7.42 18.52-27.27 9.86-10.79-4.72-77.95-59.44-92.97-70.94 29.26-26.3 58.52-52.6 87.76-78.93l-109.82 69.74c-17.97-6.05-35.95-12.06-53.9-18.15-16.01-5.14-17.84-22.95.06-29.73l208.53-81.82c2-.85 25.22-9.68 25.22 10.96zm-11.08-4.15 36.84-185.76c-.62-2.75-8.87.83-8.89.84l-209.03 81.98c-6.53 2.17-6.69 5.23-.18 7.55l48.44 16.31 130.36-82.76c4.43-2.7 11.11-4.61 14.98.04 3.91 4.71.63 10.5-3.17 14.05-3.76 3.51-77.52 69.83-100.07 90.1l79.85 61.12c7.01 2.71 10.1-1.99 10.87-3.47zM256 11.91C121.19 11.91 11.9 121.19 11.9 256S121.19 500.09 256 500.09 500.1 390.81 500.1 256 390.81 11.91 256 11.91z" fill="#24a1de" opacity="1" data-original="#000000" class=""></path></g></svg>