<svg width="104" height="104" viewBox="0 0 104 104" fill="none" xmlns="http://www.w3.org/2000/svg">
<g clipPath="url(#clip0_169_1046)">
<path d="M52 104C80.6715 104 104 80.6715 104 52C104 23.3285 80.6715 0 52 0C23.3285 0 0 23.3285 0 52C0 80.6715 23.3285 104 52 104ZM52 3.25C78.8808 3.25 100.75 25.1193 100.75 52C100.75 78.8808 78.8808 100.75 52 100.75C25.1193 100.75 3.25 78.8808 3.25 52C3.25 25.1193 25.1193 3.25 52 3.25Z" fill="#80A3FF"/>
<path d="M34.8857 44.3495C36.5334 44.8857 38.2462 44.6387 39.8614 43.628C40.2148 43.3939 40.4627 43.0309 40.5523 42.6166C40.6419 42.2022 40.566 41.7693 40.3408 41.4101C40.1156 41.051 39.759 40.794 39.347 40.6941C38.9351 40.5942 38.5004 40.6592 38.1357 40.8752C37.3524 41.3627 36.5984 41.4862 35.8997 41.262C35.1554 41.0182 34.4534 40.391 33.8652 39.4485C33.604 39.0364 33.4272 38.5765 33.345 38.0956C33.2628 37.6147 33.2768 37.1222 33.3862 36.6468C33.4956 36.1713 33.6983 35.7223 33.9825 35.3257C34.2666 34.9291 34.6266 34.5928 35.0417 34.3362C37.0502 33.0687 39.6632 33.7935 41.3564 35.0642C44.2197 37.206 45.5002 40.9305 45.5002 47.125C45.5002 56.2705 41.3402 67.6423 33.3874 71.6755C33.1866 71.7661 33.0063 71.8964 32.8573 72.0587C32.7084 72.221 32.5939 72.4118 32.5208 72.6196C32.4477 72.8274 32.4176 73.0479 32.4322 73.2677C32.4468 73.4875 32.5058 73.702 32.6058 73.8983C32.7057 74.0946 32.8444 74.2686 33.0135 74.4098C33.1826 74.5509 33.3786 74.6563 33.5896 74.7195C33.8006 74.7827 34.0223 74.8025 34.2411 74.7775C34.46 74.7526 34.6715 74.6835 34.8629 74.5745C44.4017 69.7352 48.7502 56.9497 48.7502 47.125C48.7502 39.9035 47.0212 35.2462 43.3064 32.461C40.2124 30.1307 36.1954 29.783 33.3192 31.5802C32.5423 32.0627 31.869 32.6946 31.3384 33.4395C30.8078 34.1843 30.4305 35.0271 30.2284 35.919C30.0201 36.8091 29.9907 37.7318 30.1419 38.6334C30.2931 39.5349 30.6219 40.3975 31.1092 41.171C32.1069 42.7635 33.4102 43.862 34.8857 44.3495ZM60.8857 44.3495C62.5302 44.8857 64.2462 44.6387 65.8614 43.628C66.2148 43.3939 66.4627 43.0309 66.5523 42.6166C66.6419 42.2022 66.566 41.7693 66.3408 41.4101C66.1156 41.051 65.759 40.794 65.347 40.6941C64.9351 40.5942 64.5004 40.6592 64.1357 40.8752C63.3557 41.3627 62.5984 41.4862 61.8997 41.262C61.1554 41.0182 60.4534 40.391 59.8652 39.4485C59.604 39.0364 59.4272 38.5765 59.345 38.0956C59.2628 37.6147 59.2768 37.1222 59.3862 36.6468C59.4956 36.1713 59.6983 35.7223 59.9825 35.3257C60.2666 34.9291 60.6266 34.5928 61.0417 34.3362C63.0534 33.0687 65.6664 33.7935 67.3564 35.0642C70.2197 37.206 71.5002 40.9305 71.5002 47.125C71.5002 56.2705 67.3402 67.6423 59.3874 71.6755C59.1866 71.7661 59.0063 71.8964 58.8573 72.0587C58.7084 72.221 58.5939 72.4118 58.5208 72.6196C58.4477 72.8274 58.4176 73.0479 58.4322 73.2677C58.4468 73.4875 58.5058 73.702 58.6058 73.8983C58.7057 74.0946 58.8444 74.2686 59.0135 74.4098C59.1826 74.5509 59.3786 74.6563 59.5896 74.7195C59.8006 74.7827 60.0223 74.8025 60.2411 74.7775C60.46 74.7526 60.6715 74.6835 60.8629 74.5745C70.4017 69.7352 74.7502 56.9497 74.7502 47.125C74.7502 39.9035 73.0212 35.2462 69.3064 32.461C66.2124 30.1307 62.1954 29.783 59.3192 31.5802C58.5423 32.0627 57.869 32.6946 57.3384 33.4395C56.8078 34.1843 56.4305 35.0271 56.2284 35.919C56.0201 36.8091 55.9908 37.7318 56.1419 38.6334C56.2931 39.5349 56.6219 40.3975 57.1092 41.171C58.1069 42.7635 59.4102 43.862 60.8857 44.3495Z" fill="#80A3FF"/>
</g>
<defs>
<clipPath id="clip0_169_1046">
<rect width="104" height="104" fill="white"/>
</clipPath>
</defs>
</svg>
