<svg width="16" height="16" viewBox="0 0 16 16" fill="none" xmlns="http://www.w3.org/2000/svg">
<g opacity="0.6">
<path fill-rule="evenodd" clip-rule="evenodd" d="M8.04992 3C3.83325 3 1.33325 8 1.33325 8C1.33325 8 3.83325 13 8.04992 13C12.1666 13 14.6666 8 14.6666 8C14.6666 8 12.1666 3 8.04992 3ZM7.99992 11.3333C6.16658 11.3333 4.66659 9.85 4.66659 8C4.66659 6.16667 6.16658 4.66667 7.99992 4.66667C9.84992 4.66667 11.3333 6.16667 11.3333 8C11.3333 9.85 9.84992 11.3333 7.99992 11.3333ZM9.66658 8C9.66658 8.925 8.92492 9.66667 7.99992 9.66667C7.07492 9.66667 6.33325 8.925 6.33325 8C6.33325 7.075 7.07492 6.33333 7.99992 6.33333C8.92492 6.33333 9.66658 7.075 9.66658 8Z" fill="#2F2F2F"/>
</g>
</svg>
