<svg width="32" height="32" viewBox="0 0 32 32" fill="none" xmlns="http://www.w3.org/2000/svg">
<path d="M20.2222 18.5847C21.2908 17.1171 21.7882 15.3071 21.6159 13.4948C21.4366 11.6089 20.5456 9.86215 19.1242 8.60988C17.7028 7.35761 15.8577 6.69388 13.9643 6.75372C12.0709 6.81356 10.2715 7.59248 8.93196 8.93201C7.59246 10.2715 6.81356 12.0711 6.75372 13.9645C6.69388 15.858 7.35759 17.7031 8.60983 19.1245C9.86207 20.546 11.6088 21.437 13.4946 21.6163C15.3071 21.7886 17.1173 21.291 18.585 20.2222L23.2733 24.9106C23.2733 24.9106 23.2733 24.9106 23.2733 24.9107C23.4904 25.1278 23.7848 25.2499 24.0918 25.25C24.3989 25.2501 24.6934 25.1282 24.9106 24.9112C25.1278 24.6941 25.2499 24.3997 25.25 24.0926C25.2501 23.7855 25.1282 23.491 24.9112 23.2738L24.9111 23.2737L20.2222 18.5847ZM17.8418 17.8411C16.876 18.8069 15.5661 19.3495 14.2003 19.3495C12.8345 19.3495 11.5247 18.8069 10.5589 17.8411C9.59315 16.8753 9.05059 15.5654 9.05059 14.1996C9.05059 12.8338 9.59315 11.5239 10.5589 10.5581C11.5247 9.59231 12.8345 9.04973 14.2003 9.04973C15.5661 9.04973 16.876 9.59231 17.8418 10.5581C18.8075 11.5239 19.3501 12.8338 19.3501 14.1996C19.3501 15.5654 18.8075 16.8753 17.8418 17.8411Z" fill="white" stroke="white" stroke-width="0.5"/>
</svg>
