<svg width="16" height="16" viewBox="0 0 16 16" fill="none" xmlns="http://www.w3.org/2000/svg">
<path d="M13.1335 0.333313H2.86683C1.46683 0.333313 0.333496 1.46665 0.333496 2.86665V13.1333C0.333496 14.5333 1.46683 15.6666 2.86683 15.6666H13.1335C14.5335 15.6666 15.6668 14.5333 15.6668 13.1333V2.86665C15.6668 1.46665 14.5335 0.333313 13.1335 0.333313ZM13.2668 9.13331C13.1335 9.39998 12.8668 9.59998 12.6002 9.73331L11.8668 9.99998L12.1335 10.7333C12.2002 11 12.2002 11.3333 12.0668 11.6C11.9335 11.8666 11.6668 12.0666 11.4002 12.2C11.2668 12.2666 11.1335 12.2666 11.0668 12.2666C10.5335 12.2666 10.1335 11.9333 10.0002 11.4666L9.7335 10.6666L8.20016 11.2L8.46683 11.9333C8.5335 12.2 8.5335 12.5333 8.40016 12.8C8.26683 13.0666 8.00016 13.2666 7.7335 13.4C7.60016 13.4666 7.46683 13.4666 7.40016 13.4666C6.9335 13.4666 6.46683 13.1333 6.3335 12.6666L6.06683 11.9333L5.3335 12.1333C5.1335 12.2 4.9335 12.2 4.80016 12.2H4.7335C4.66683 12.2 4.60016 12.2 4.60016 12.1333H4.5335H4.46683L4.3335 12C4.26683 11.9333 4.20016 11.9333 4.20016 11.9333L4.1335 11.8666L4.06683 11.8V11.7333L4.00016 11.6666C4.00016 11.6666 4.00016 11.6 3.9335 11.6C3.9335 11.5333 3.86683 11.5333 3.86683 11.4666C3.86683 11.4666 3.80016 11.4 3.80016 11.3333C3.60016 10.7333 3.9335 10.0666 4.5335 9.86665L5.3335 9.66665L4.86683 8.19998L4.1335 8.46665C4.00016 8.53331 3.86683 8.53331 3.80016 8.53331H3.60016H3.46683H3.40016H3.3335C3.3335 8.53331 3.26683 8.53331 3.26683 8.46665L3.20016 8.39998C3.20016 8.39998 3.1335 8.39998 3.1335 8.33331L3.00016 8.26665L2.9335 8.19998L2.86683 8.13331C2.86683 8.13331 2.86683 8.06665 2.80016 8.06665C2.80016 7.99998 2.7335 7.99998 2.7335 7.93331C2.7335 7.93331 2.66683 7.86665 2.66683 7.79998C2.46683 7.19998 2.80016 6.53331 3.40016 6.33331L4.1335 6.06665L3.86683 5.33331C3.66683 4.73331 3.9335 4.06665 4.5335 3.86665C5.1335 3.66665 5.80016 3.99998 6.00016 4.59998L6.26683 5.33331L7.80016 4.79998L7.5335 4.06665C7.46683 3.79998 7.46683 3.46665 7.60016 3.19998C7.7335 2.93331 8.00016 2.73331 8.26683 2.59998C8.86683 2.39998 9.5335 2.73331 9.7335 3.33331L10.0002 4.06665L10.6668 3.86665C11.2668 3.66665 11.9335 3.99998 12.1335 4.59998C12.2002 4.86665 12.2002 5.19998 12.0668 5.46665C11.9335 5.66665 11.8002 5.79998 11.6002 5.93331C11.5335 5.99998 11.4668 5.99998 11.4002 5.99998L10.6668 6.33331L11.1335 7.79998L11.8668 7.53331C12.4668 7.33331 13.1335 7.66665 13.3335 8.26665C13.4668 8.53331 13.4002 8.79998 13.2668 9.13331Z" fill="#80A3FF"/>
</svg>
