<svg width="24" height="24" viewBox="0 0 24 24" fill="none" xmlns="http://www.w3.org/2000/svg">
<g clip-path="url(#clip0_2131_56)">
<path d="M6.75299 13.5C7.34973 13.5 7.92202 13.2629 8.34398 12.841C8.76594 12.419 9.00299 11.8467 9.00299 11.25C9.00299 10.6533 8.76594 10.081 8.34398 9.65901C7.92202 9.23705 7.34973 9 6.75299 9C6.15625 9 5.58396 9.23705 5.162 9.65901C4.74004 10.081 4.50299 10.6533 4.50299 11.25C4.50299 11.8467 4.74004 12.419 5.162 12.841C5.58396 13.2629 6.15625 13.5 6.75299 13.5Z" fill="black"/>
<path d="M21.003 19.5C21.003 20.2956 20.6869 21.0587 20.1243 21.6213C19.5617 22.1839 18.7986 22.5 18.003 22.5H3.00299C2.20734 22.5 1.44428 22.1839 0.88167 21.6213C0.319061 21.0587 0.00299072 20.2956 0.00299072 19.5V7.5C0.00299033 6.70487 0.318649 5.94226 0.88061 5.37974C1.44257 4.81722 2.20486 4.5008 2.99999 4.5C2.99999 3.70435 3.31606 2.94129 3.87867 2.37868C4.44128 1.81607 5.20434 1.5 5.99999 1.5H21C21.7956 1.5 22.5587 1.81607 23.1213 2.37868C23.6839 2.94129 24 3.70435 24 4.5V16.5C24 17.2951 23.6843 18.0577 23.1224 18.6203C22.5604 19.1828 21.7981 19.4992 21.003 19.5ZM21 3H5.99999C5.60217 3 5.22064 3.15804 4.93933 3.43934C4.65803 3.72064 4.49999 4.10218 4.49999 4.5H18.003C18.7986 4.5 19.5617 4.81607 20.1243 5.37868C20.6869 5.94129 21.003 6.70435 21.003 7.5V18C21.4003 17.9992 21.7811 17.8408 22.0617 17.5596C22.3424 17.2784 22.5 16.8973 22.5 16.5V4.5C22.5 4.10218 22.342 3.72064 22.0607 3.43934C21.7793 3.15804 21.3978 3 21 3ZM3.00299 6C2.60517 6 2.22364 6.15804 1.94233 6.43934C1.66103 6.72064 1.50299 7.10218 1.50299 7.5V19.5L5.47199 15.969C5.59459 15.8468 5.75566 15.7709 5.9279 15.7539C6.10013 15.737 6.27293 15.7801 6.41699 15.876L10.407 18.5355L15.972 12.9705C16.0832 12.8592 16.2267 12.7856 16.382 12.7603C16.5373 12.735 16.6967 12.7592 16.8375 12.8295L19.503 15.75V7.5C19.503 7.10218 19.345 6.72064 19.0637 6.43934C18.7823 6.15804 18.4008 6 18.003 6H3.00299Z" fill="black"/>
</g>
<defs>
<clipPath id="clip0_2131_56">
<rect width="24" height="24" fill="white"/>
</clipPath>
</defs>
</svg>
