<svg width="24" height="24" viewBox="0 0 24 24" fill="none" xmlns="http://www.w3.org/2000/svg">
<path d="M10.6 13.4C10.7444 13.5926 10.8145 13.8308 10.7975 14.0709C10.7804 14.311 10.6773 14.5369 10.5071 14.7071C10.3369 14.8773 10.111 14.9804 9.87086 14.9975C9.63075 15.0146 9.39254 14.9444 9.19997 14.8C8.72166 14.3511 8.34044 13.8089 8.07984 13.2069C7.81924 12.605 7.68478 11.956 7.68478 11.3C7.68478 10.644 7.81924 9.99503 8.07984 9.39305C8.34044 8.79108 8.72166 8.2489 9.19997 7.8L12.7 4.2C13.6515 3.27751 14.9247 2.76163 16.25 2.76163C17.5752 2.76163 18.8485 3.27751 19.8 4.2C20.7225 5.1515 21.2383 6.42473 21.2383 7.75C21.2383 9.07527 20.7225 10.3485 19.8 11.3L18.3 12.8C18.3213 11.9818 18.1855 11.1671 17.9 10.4L18.4 9.9C18.934 9.31128 19.2298 8.54486 19.2298 7.75C19.2298 6.95514 18.934 6.18873 18.4 5.6C17.8112 5.06595 17.0448 4.77013 16.25 4.77013C15.4551 4.77013 14.6887 5.06595 14.1 5.6L10.6 9.2C10.3156 9.47086 10.0892 9.79665 9.93445 10.1576C9.77974 10.5186 9.69997 10.9073 9.69997 11.3C9.69997 11.6927 9.77974 12.0814 9.93445 12.4424C10.0892 12.8034 10.3156 13.1291 10.6 13.4ZM16.2 13.7C16.3733 12.8928 16.3355 12.0546 16.0903 11.2664C15.845 10.4781 15.4006 9.76637 14.8 9.2C14.6074 9.05557 14.3692 8.98545 14.1291 9.00252C13.889 9.01958 13.6631 9.12268 13.4929 9.2929C13.3227 9.46311 13.2196 9.689 13.2025 9.92911C13.1854 10.1692 13.2555 10.4074 13.4 10.6C13.6844 10.8709 13.9108 11.1967 14.0655 11.5576C14.2202 11.9186 14.3 12.3073 14.3 12.7C14.3 13.0927 14.2202 13.4814 14.0655 13.8424C13.9108 14.2034 13.6844 14.5291 13.4 14.8L9.89997 18.4C9.31124 18.934 8.54483 19.2299 7.74997 19.2299C6.95511 19.2299 6.1887 18.934 5.59997 18.4C5.06592 17.8113 4.7701 17.0449 4.7701 16.25C4.7701 15.4551 5.06592 14.6887 5.59997 14.1L6.09997 13.7C5.82204 12.8963 5.68667 12.0503 5.69997 11.2L4.19997 12.7C3.27748 13.6515 2.7616 14.9247 2.7616 16.25C2.7616 17.5753 3.27748 18.8485 4.19997 19.8C5.15147 20.7225 6.4247 21.2384 7.74997 21.2384C9.07524 21.2384 10.3485 20.7225 11.3 19.8L13.1 18C13.2528 17.0937 13.6119 16.2346 14.1493 15.4891C14.6868 14.7435 15.3884 14.1314 16.2 13.7ZM21.1 15.5L19 17.6L16.9 15.5L15.5 16.9L17.6 19L15.5 21.1L16.9 22.5L19 20.4L21.1 22.5L22.5 21.1L20.4 19L22.5 16.9L21.1 15.5Z" fill="black"/>
</svg>
