<svg width="26" height="26" viewBox="0 0 26 26" fill="none" xmlns="http://www.w3.org/2000/svg">
<path d="M9.50274 11.4786L9.86094 10.6213C9.88268 10.5562 9.9153 10.5019 9.94772 10.4549C10.1249 10.2016 10.4144 10.0498 10.7183 10.0498C10.8377 10.0498 10.9571 10.0752 11.0692 10.1221L11.9266 10.4731L12.1255 10.2741L9.07227 4.13496H5.81641L9.43408 11.4787L9.50274 11.4786Z" fill="#009FFF"/>
<path d="M14.3577 10.2809L14.553 10.4726L15.414 10.1216C15.5298 10.0745 15.6492 10.0493 15.7686 10.0493C16.0761 10.0493 16.362 10.205 16.5355 10.4581L16.6078 10.5847L16.9769 11.4783H17.0492L20.6669 4.13457H17.4328L14.3577 10.2809Z" fill="#009FFF"/>
<path d="M19.0604 1.15001C19.0278 1.10653 18.9736 1.08135 18.9192 1.08135L7.58866 1.08116C7.5343 1.08116 7.48013 1.10653 7.44752 1.14982L5.64948 3.64235H20.8326L19.0604 1.15001ZM12.5355 2.60744H12.4937C12.3938 2.60744 12.3129 2.52657 12.3129 2.42662C12.3129 2.32667 12.3938 2.2458 12.4937 2.2458H12.5355C12.6354 2.2458 12.7163 2.32667 12.7163 2.42662C12.7163 2.52657 12.6354 2.60744 12.5355 2.60744ZM13.2626 2.60744H13.2208C13.1209 2.60744 13.04 2.52657 13.04 2.42662C13.04 2.32667 13.1209 2.2458 13.2208 2.2458H13.2626C13.3625 2.2458 13.4434 2.32667 13.4434 2.42662C13.4434 2.52657 13.3625 2.60744 13.2626 2.60744ZM13.9899 2.60744H13.9481C13.8481 2.60744 13.7673 2.52657 13.7673 2.42662C13.7673 2.32667 13.8481 2.2458 13.9481 2.2458H13.9899C14.0898 2.2458 14.1707 2.32667 14.1707 2.42662C14.1707 2.52657 14.0898 2.60744 13.9899 2.60744Z" fill="#009FFF"/>
<path d="M15.5223 16.3839L14.1511 16.1813C14.0897 16.1705 14.0389 16.1342 14.0136 16.0837L13.4022 14.8428C13.3406 14.7161 13.1381 14.7161 13.0766 14.8428L12.4653 16.0837C12.4399 16.1342 12.3894 16.1705 12.3278 16.1813L10.9568 16.3839C10.8881 16.3912 10.8338 16.4383 10.812 16.5069C10.7903 16.5756 10.8048 16.6445 10.8555 16.6914L11.8468 17.6572C11.8903 17.7007 11.9084 17.7585 11.8975 17.8201L11.666 19.1841C11.6515 19.2528 11.6805 19.318 11.7383 19.3613C11.7962 19.4048 11.8685 19.4084 11.9299 19.3758L13.1564 18.7318C13.1817 18.7173 13.2107 18.7101 13.2395 18.7101C13.2685 18.7101 13.2973 18.7173 13.3227 18.7318L14.5491 19.3758C14.6141 19.4084 14.683 19.4048 14.7408 19.3613C14.7988 19.3178 14.8276 19.2528 14.8131 19.1841L14.5815 17.8201C14.5706 17.7585 14.5888 17.7007 14.6323 17.6572L15.6235 16.6914C15.6743 16.6443 15.6886 16.5756 15.667 16.5069C15.6453 16.4381 15.5911 16.391 15.5223 16.3839Z" fill="#FF8F00"/>
<path d="M19.408 15.8414L19.8566 14.7561C19.9146 14.615 19.9146 14.4631 19.853 14.3256C19.7952 14.1881 19.6867 14.0796 19.5492 14.029L18.4675 13.5804V12.4011C18.4675 12.0864 18.2215 11.8404 17.9068 11.8404L16.7345 11.8402L16.2823 10.7441L16.2352 10.6609C16.0868 10.4402 15.8047 10.3534 15.5514 10.4547L14.4698 10.8997L13.6378 10.0711C13.4316 9.86132 13.048 9.86132 12.8454 10.0711L12.0098 10.8997L10.9282 10.4547C10.6858 10.3534 10.4001 10.4402 10.248 10.6573C10.2263 10.6899 10.2082 10.7187 10.1937 10.7585L9.74506 11.8402H8.57319C8.26572 11.8402 8.01244 12.0935 8.01244 12.4009V13.5802L6.93442 14.0288C6.79327 14.0832 6.68112 14.1917 6.62333 14.329C6.56916 14.4666 6.56916 14.6184 6.62695 14.7559L7.07194 15.8412L6.24337 16.6662C6.13484 16.7711 6.07343 16.9195 6.07343 17.0715C6.07705 17.2233 6.13484 17.3644 6.24337 17.4621L7.07194 18.2977L6.62695 19.3793C6.50755 19.6687 6.64145 19.9908 6.93079 20.1137L8.01243 20.5623V21.738C8.01243 22.049 8.26573 22.2987 8.57318 22.2987H9.74886L10.1975 23.3803C10.2518 23.5215 10.3604 23.63 10.5013 23.6878C10.6388 23.7456 10.7907 23.7456 10.9282 23.6878L12.0135 23.2428L12.8418 24.0678C12.9468 24.1727 13.0915 24.2341 13.2397 24.2341C13.3881 24.2341 13.5327 24.1725 13.634 24.0678L14.4659 23.2428L15.5513 23.6878C15.6888 23.7456 15.8406 23.7456 15.9781 23.6878C16.1193 23.6298 16.2278 23.5213 16.282 23.3803L16.7309 22.2989H17.9066C18.2141 22.2989 18.4674 22.0492 18.4674 21.7382V20.5625L19.5527 20.1139C19.8348 19.9908 19.9723 19.6725 19.8565 19.3795L19.4079 18.2979L20.2327 17.4659C20.3412 17.3646 20.4028 17.2235 20.4028 17.0717C20.4064 16.9197 20.345 16.7751 20.2363 16.6664L19.408 15.8414ZM13.2401 21.8863C10.5846 21.8863 8.42132 19.7267 8.42132 17.0713C8.42132 14.4158 10.5846 12.2525 13.2401 12.2525C15.8955 12.2525 18.0588 14.4158 18.0588 17.0713C18.0588 19.7267 15.8955 21.8863 13.2401 21.8863Z" fill="#FF003C"/>
<path d="M13.2396 12.6144C10.7831 12.6144 8.78271 14.615 8.78271 17.0712C8.78271 19.5277 10.7833 21.5245 13.2396 21.5245C15.6961 21.5245 17.6965 19.5275 17.6965 17.0712C17.6965 14.615 15.696 12.6144 13.2396 12.6144ZM15.8733 16.9519L14.9543 17.8527L15.1714 19.1224C15.2076 19.3286 15.1243 19.5312 14.9543 19.6542C14.8603 19.7229 14.7482 19.7591 14.636 19.7591C14.5492 19.7591 14.4624 19.7374 14.3827 19.6941L13.2396 19.0934L12.0964 19.6941C11.9119 19.7917 11.6949 19.7772 11.5248 19.6542C11.3546 19.5312 11.2715 19.3286 11.3077 19.1224L11.5248 17.8527L10.606 16.9519C10.454 16.8073 10.4034 16.5937 10.4685 16.3947C10.5301 16.1958 10.7 16.0547 10.9062 16.0259L12.1832 15.8378L12.7512 14.6836C12.8452 14.4956 13.0297 14.3798 13.2397 14.3798C13.4495 14.3798 13.6339 14.4956 13.7279 14.6836L14.296 15.8378L15.5729 16.0259C15.7791 16.0548 15.9492 16.1958 16.0107 16.3947C16.0759 16.5939 16.0253 16.8073 15.8733 16.9519Z" fill="#FF8F00"/>
</svg>
