<svg width="50" height="35" viewBox="0 0 50 35" fill="none" xmlns="http://www.w3.org/2000/svg">
<g clip-path="url(#clip0_2212_690)">
<path opacity="0.18" d="M30.4616 1.29418C32.5551 2.31809 34.2925 3.86706 35.9188 5.50056C38.1222 7.71507 40.9303 9.26523 43.4948 11.0583C46.4052 13.0918 49.1944 15.7016 49.8498 19.0639C50.1288 20.4926 49.995 21.9749 49.6578 23.3941C49.2728 25.0637 48.5792 26.6564 47.6085 28.0993C45.6135 31.0139 42.4102 33.1093 38.8962 34.1487C35.3822 35.1881 31.5905 35.2203 27.9818 34.544C26.0966 34.1928 24.2342 33.6511 22.3124 33.6046C20.8566 33.5689 19.4083 33.8189 17.9702 33.9999C13.5408 34.5571 8.8222 34.4214 4.90291 32.3974C2.45588 31.121 0.318199 28.9422 0.0341008 26.3134C-0.291665 23.3012 1.76773 20.7057 3.85364 18.6531C5.55641 16.985 7.04017 15.1298 8.27294 13.1275C8.81841 12.2501 9.37903 11.5547 9.71364 10.5582C10.0344 9.60574 10.2326 8.61874 10.6101 7.68174C11.0421 6.61581 11.7052 5.64664 12.5571 4.83621C13.9385 3.52655 15.7416 2.69313 17.5068 1.8871C18.5421 1.41086 19.58 0.941763 20.671 0.603633C23.1909 -0.170381 25.9012 -0.201118 28.4401 0.515528C29.1381 0.715465 29.8148 0.976137 30.4616 1.29418Z" fill="#68E1FD"/>
<path d="M24.9577 30.7257C25.1524 30.7714 25.3334 30.8585 25.4867 30.9805C25.8857 31.3377 25.6913 32.0211 25.2494 32.3319C24.8074 32.6426 24.2241 32.689 23.6748 32.7355C21.8504 32.8829 20.0358 33.1238 18.2391 33.457C16.4903 33.782 14.7163 34.194 12.9208 34.132C12.2894 34.1106 10.7364 34.082 10.2805 33.5987C9.69467 32.9772 10.946 32.2569 11.4674 31.9163C13.614 30.5102 16.1317 30.8293 18.6128 30.4757C20.7152 30.1757 22.9109 30.1031 24.9577 30.7257Z" fill="url(#paint0_linear_2212_690)"/>
<path d="M33.8342 27.3397C33.5425 27.4254 33.2458 27.5635 33.088 27.81C33.0111 27.9558 32.9501 28.1085 32.9062 28.266C32.8021 28.5408 32.635 28.7906 32.4167 28.9974C32.1985 29.2043 31.9344 29.3631 31.6435 29.4625C31.4768 29.5185 31.29 29.5625 31.1864 29.7007C31.137 29.7749 31.1118 29.8612 31.114 29.9489C31.1163 30.0366 31.1458 30.1217 31.199 30.1936C31.3083 30.3351 31.4569 30.4455 31.6283 30.5126C32.2433 30.7841 32.9592 30.7841 33.6259 30.6603C34.2926 30.5365 34.9277 30.3031 35.5754 30.1043C36.413 29.8552 37.2738 29.6818 38.1462 29.5864C38.8369 29.5114 39.5351 29.484 40.2018 29.284C40.8685 29.0839 41.4973 28.6779 41.7523 28.0683C40.9266 27.2695 39.6058 27.173 38.4303 27.2587C36.9265 27.3659 35.3077 26.9087 33.8342 27.3397Z" fill="url(#paint1_linear_2212_690)"/>
<path d="M4.56575 26.1943C4.27407 26.2812 3.97735 26.4182 3.81951 26.6646C3.7422 26.8104 3.68085 26.9631 3.63643 27.1206C3.53303 27.3958 3.36612 27.6458 3.14777 27.8527C2.92941 28.0597 2.66505 28.2183 2.37377 28.3172C2.20836 28.3731 2.02149 28.4172 1.91669 28.5553C1.86786 28.6297 1.84305 28.716 1.84529 28.8035C1.84754 28.891 1.87673 28.976 1.92932 29.0482C2.03806 29.1907 2.18733 29.3013 2.35988 29.3673C2.9748 29.6387 3.69072 29.6387 4.35741 29.5149C5.02409 29.3911 5.65921 29.1577 6.30695 28.9589C7.14453 28.7098 8.00532 28.5364 8.87772 28.441C9.56714 28.366 10.2666 28.3386 10.9333 28.1398C11.6 27.9409 12.2288 27.5326 12.4839 26.923C11.6581 26.1241 10.3374 26.0276 9.16182 26.1134C7.65673 26.217 6.03801 25.755 4.56575 26.1943Z" fill="url(#paint2_linear_2212_690)"/>
<path d="M16.7643 24.5942C15.9941 24.7251 15.2037 24.868 14.5395 25.2585C14.311 25.3919 14.0887 25.5788 14.0559 25.8276C14.0193 26.105 14.2415 26.3646 14.5105 26.4813C14.7889 26.5794 15.0864 26.62 15.383 26.6003L18.8502 26.6206L21.4172 26.6349C21.7278 26.6349 22.0851 26.592 22.3907 26.6349C22.9501 26.723 23.4349 26.9801 24.0322 27.0063C24.8011 27.0409 25.5676 26.9063 26.3188 26.7682C26.7886 26.6825 27.2696 26.592 27.68 26.3575C27.8454 26.2634 28.0108 26.1193 27.9982 25.936C27.9807 25.8261 27.9231 25.7255 27.8353 25.6514C27.2507 25.0823 26.2923 25.1288 25.4729 24.9537C24.6016 24.7668 23.815 24.293 22.9324 24.1548C22.5273 24.1049 22.1181 24.0905 21.7101 24.112C20.9816 24.1287 20.2455 24.037 19.527 24.1429C18.6027 24.2894 17.6848 24.4489 16.7643 24.5942Z" fill="url(#paint3_linear_2212_690)"/>
<path d="M21.4677 23.4631C20.8212 23.325 20.9475 24.1906 20.777 24.5108C20.6706 24.675 20.5358 24.821 20.378 24.943C20.2193 25.0663 20.1156 25.2414 20.0876 25.4335C20.0836 25.4695 20.0916 25.5057 20.1104 25.5371C20.1416 25.5753 20.1865 25.6015 20.2366 25.6109C20.6057 25.7122 21.002 25.6751 21.3427 25.5074C21.5019 25.4356 21.634 25.3197 21.7215 25.1752C21.7921 25.0201 21.8253 24.8521 21.8187 24.6835C21.8376 24.3227 22.0068 23.575 21.4677 23.4631Z" fill="#FDB9A9"/>
<path d="M20.8907 25.2419C20.8907 25.2419 19.051 25.3157 19.8301 25.861C20.6091 26.4063 21.7745 25.7288 21.8907 25.599C22.0068 25.4693 21.9121 25.2621 21.9121 25.2621L20.8907 25.2419Z" fill="#68E1FD"/>
<path d="M21.8111 25.48C21.647 25.6681 20.7821 25.9217 20.4007 25.8955C20.0194 25.8693 19.6747 25.7014 19.7114 25.4681C19.748 25.2347 20.4247 24.693 20.5523 24.6942C20.6798 24.6954 20.7795 24.9728 21.0358 25.0299C21.1498 25.048 21.2667 25.0382 21.3754 25.0015C21.4842 24.9649 21.5812 24.9025 21.6571 24.8204C21.6803 24.7903 21.7139 24.7687 21.7521 24.7594C21.7904 24.75 21.8308 24.7535 21.8667 24.7692C21.919 24.8831 21.9413 25.0072 21.9316 25.131C21.9219 25.2548 21.8806 25.3746 21.8111 25.48Z" fill="white"/>
<path d="M23.6849 23.8048C23.0384 23.6631 23.1647 24.5275 22.9942 24.8478C22.8882 25.0125 22.7533 25.159 22.5953 25.2811C22.4374 25.4051 22.3339 25.5799 22.3049 25.7717C22.3008 25.8076 22.3088 25.8438 22.3276 25.8753C22.3589 25.9134 22.4037 25.9396 22.4538 25.9491C22.823 26.0497 23.219 26.0127 23.5599 25.8455C23.7185 25.7729 23.8504 25.6572 23.9387 25.5133C24.0093 25.3582 24.0425 25.1903 24.0359 25.0216C24.0549 24.6573 24.224 23.9131 23.6849 23.8048Z" fill="#FDB9A9"/>
<path d="M23.1129 25.5764C23.1129 25.5764 21.2732 25.649 22.0523 26.1955C22.8313 26.742 23.9955 26.0622 24.1078 25.9384C24.2202 25.8145 24.1293 25.6002 24.1293 25.6002L23.1129 25.5764Z" fill="#68E1FD"/>
<path d="M24.0283 25.8122C23.8642 26.0015 23.0006 26.2539 22.618 26.2289C22.2354 26.2039 21.892 26.0348 21.9286 25.8014C21.9652 25.5681 22.642 25.0252 22.7695 25.0275C22.897 25.0299 22.998 25.3061 23.2531 25.3621C23.3672 25.3802 23.4843 25.3704 23.5932 25.3337C23.7022 25.297 23.7994 25.2347 23.8756 25.1526C23.8986 25.1225 23.932 25.101 23.97 25.0917C24.008 25.0823 24.0483 25.0858 24.0839 25.1014C24.1362 25.2153 24.1585 25.3394 24.1489 25.4632C24.1392 25.587 24.0978 25.7067 24.0283 25.8122Z" fill="white"/>
<path d="M22.0182 15.9373L22.8831 24.5097L24.1281 24.3644C24.6205 22.2725 24.4993 16.0112 24.4993 16.0112L22.0182 15.9373Z" fill="#473F47"/>
<path d="M22.8831 15.7052L22.0182 24.2775L20.7644 24.1358C20.0523 18.7091 20.6381 15.3254 20.6381 15.3254L22.8831 15.7052Z" fill="#473F47"/>
<path d="M20.7543 12.6037C20.7392 12.4465 20.695 12.2905 20.6773 12.1274C20.6369 11.8035 20.6433 11.4758 20.6962 11.1535C20.755 10.8109 20.8646 10.4778 21.022 10.1641C21.1659 9.89148 21.4248 9.77599 21.7177 9.64026C21.9617 9.51542 22.2264 9.43048 22.5005 9.38905C22.6947 9.3725 22.8904 9.38293 23.0814 9.42C23.6685 9.52477 24.4425 9.81052 24.849 10.2534C25.1508 10.5808 25.1861 11.0511 25.195 11.4857C25.2076 12.0842 25.1946 12.6826 25.1558 13.2811C25.1558 13.368 25.1457 13.4549 25.1382 13.5419C25.0839 14.1979 25.0271 14.8789 24.8288 15.5135C24.767 15.7123 24.7026 15.9123 24.5056 16.0195C24.046 16.2707 23.3427 16.1385 22.8465 16.0671C22.1887 15.979 21.5119 15.8873 20.9286 15.5909C20.8068 15.541 20.7082 15.4514 20.6508 15.3385C20.6003 15.2039 20.6622 15.0575 20.7063 14.9206C20.9033 14.3074 20.7505 13.6633 20.7505 13.0382C20.7505 12.9251 20.7657 12.8096 20.7657 12.6965C20.7644 12.6608 20.7543 12.6322 20.7543 12.6037Z" fill="white"/>
<path opacity="0.1" d="M22.3528 10.182C22.4182 10.0649 22.4961 9.95445 22.5851 9.8522C22.5964 9.83831 22.6111 9.82726 22.628 9.82005C22.6434 9.81647 22.6594 9.81647 22.6748 9.82005L23.2379 9.90458C23.2642 9.90575 23.2896 9.91401 23.3111 9.9284C23.3289 9.94296 23.342 9.96193 23.349 9.98316C23.3836 10.1111 23.3646 10.2467 23.296 10.3618C23.1319 10.6592 22.9378 10.9411 22.7164 11.2035C22.5899 11.364 22.482 11.5369 22.3945 11.7191C22.3528 11.8107 22.3389 11.9143 22.2985 12.006C22.2581 12.0977 22.1722 12.05 22.1003 12.0346L21.2316 11.8619L20.7972 11.7762C20.7341 11.7643 20.6849 11.7643 20.7177 11.6941C20.7292 11.6734 20.745 11.6551 20.7641 11.6401C20.7831 11.6252 20.8051 11.614 20.8288 11.6071C20.8971 11.5909 20.9668 11.5805 21.0371 11.5762C21.1813 11.5427 21.3163 11.481 21.4336 11.3952C21.5264 11.3388 21.6146 11.2759 21.6975 11.2071C22.0106 10.9368 22.1533 10.5368 22.3528 10.182Z" fill="#020202"/>
<path d="M21.4071 9.65931C21.466 9.58425 21.5448 9.52512 21.6356 9.48787C21.8414 9.4212 22.046 9.58431 22.2581 9.63074C22.4172 9.66408 22.6154 9.64503 22.7101 9.77123C22.7382 9.82493 22.7528 9.884 22.7528 9.94387C22.7528 10.0037 22.7382 10.0628 22.7101 10.1165C22.5319 10.6547 22.3125 11.1799 22.0536 11.6881C21.95 11.8917 21.8149 12.0738 21.7051 12.2691C21.5788 12.4846 21.5523 12.712 21.3743 12.9049C21.1962 13.0978 20.8692 13.2335 20.6053 13.1347C20.4733 13.0799 20.3613 12.9896 20.2834 12.8751C19.9538 12.4263 20.1836 11.9476 20.3654 11.4976C20.4967 11.1809 21.3414 9.72837 21.4071 9.65931Z" fill="white"/>
<path opacity="0.1" d="M24.2467 16.0909C24.0257 16.129 23.7631 16.279 23.5346 16.2386C23.2809 16.1241 23.0069 16.0551 22.7265 16.035C22.3477 15.9933 21.9525 15.8314 21.5901 15.7218C21.4372 15.6888 21.2953 15.6205 21.1773 15.523C20.9563 15.3063 21.022 14.9587 21.0674 14.661C21.1329 14.2259 21.1231 13.7836 21.0384 13.3514C21.0053 13.1478 20.949 12.9482 20.8704 12.7561C20.801 12.606 20.6924 12.5084 20.7189 12.3298C20.7417 12.1727 20.8566 11.9881 21.0434 11.9727C21.1424 11.9759 21.2387 12.0039 21.3225 12.0536C21.5597 12.1738 21.8153 12.2585 22.08 12.3048C22.4021 12.3423 22.7289 12.2929 23.0224 12.1622C23.3158 12.0315 23.5639 11.825 23.7379 11.5667C23.9108 11.3095 24.0826 10.1225 24.5662 10.2868C24.7224 10.3496 24.8622 10.4438 24.9759 10.5629C25.0895 10.682 25.1742 10.823 25.224 10.9761C25.3186 11.2853 25.3579 11.6072 25.3401 11.9286C25.33 12.762 25.1545 13.6133 25.0422 14.4408C24.998 14.7539 24.9462 15.9171 24.5068 16.0195C24.4172 16.0362 24.3326 16.0743 24.2467 16.0909Z" fill="#020202"/>
<path d="M21.1116 11.4524C21.0308 11.4049 20.9388 11.3771 20.8438 11.3715C20.7488 11.3659 20.6539 11.3826 20.5674 11.4202C20.4824 11.4605 20.4106 11.522 20.3599 11.5979C20.3091 11.6739 20.2814 11.7615 20.2795 11.8512C20.2878 11.9735 20.3315 12.0912 20.4058 12.1917C20.446 12.2578 20.5007 12.315 20.5662 12.3596C20.6698 12.418 20.7911 12.4419 20.9109 12.4275C21.0191 12.4238 21.125 12.3965 21.2202 12.3477C21.3616 12.2727 21.5447 12.0584 21.498 11.8905C21.4179 11.7117 21.2834 11.5592 21.1116 11.4524Z" fill="#FDB9A9"/>
<path d="M25.0068 10.4225C25.5397 11.2559 25.7253 12.2358 25.9008 13.193C25.9314 13.3099 25.937 13.4313 25.9172 13.5502C25.8841 13.6556 25.8222 13.751 25.7378 13.8268C25.6534 13.9027 25.5494 13.9563 25.4361 13.9824C25.2095 14.0325 24.9752 14.0442 24.7442 14.0169C24.248 13.9871 23.6596 13.9467 23.2392 13.6752C23.094 13.5823 22.9664 13.4669 22.8187 13.3776C22.6745 13.2979 22.5247 13.2275 22.3705 13.1668C22.0762 13.038 21.7955 12.8834 21.5321 12.7049C21.4414 12.6524 21.366 12.5796 21.3124 12.4929C21.2265 12.331 21.2934 12.1358 21.3604 11.9691C21.3727 11.9257 21.4003 11.8875 21.4387 11.8607C21.4913 11.8405 21.5502 11.8405 21.6028 11.8607C22.313 12.06 23.0369 12.2128 23.7695 12.3179C23.9702 12.3477 23.8818 12.1393 23.8553 12.031C23.8112 11.8793 23.7758 11.7255 23.7493 11.5702C23.7233 11.3467 23.7557 11.1206 23.8437 10.9116C23.9318 10.7026 24.0727 10.5171 24.2543 10.3713C24.3478 10.2893 24.4661 10.2368 24.5927 10.2213C24.6729 10.2252 24.7513 10.2451 24.8227 10.2798C24.8942 10.3145 24.9569 10.3631 25.0068 10.4225Z" fill="white"/>
<path d="M22.3124 8.47229C22.2933 8.38944 22.2798 8.30553 22.272 8.22107C22.2291 7.86389 22.1925 7.49242 22.3781 7.18525C22.4549 7.05613 22.5668 6.94864 22.7022 6.87383C22.8377 6.79902 22.9919 6.75958 23.1489 6.75958C23.3059 6.75958 23.4601 6.79902 23.5955 6.87383C23.731 6.94864 23.8429 7.05613 23.9197 7.18525C24.0281 7.37769 24.075 7.59563 24.0548 7.81269C24.0343 8.0287 23.992 8.24238 23.9286 8.45085C23.868 8.67231 23.7139 8.80803 23.6255 9.01163C23.5954 9.09922 23.5813 9.19102 23.5839 9.28308C23.5966 9.42054 23.5966 9.55877 23.5839 9.69622C23.44 9.7854 23.2754 9.84053 23.1041 9.85695C23.0238 9.85571 22.9441 9.84286 22.868 9.81885C22.8249 9.81081 22.7869 9.78733 22.7619 9.75337C22.7506 9.72361 22.748 9.69154 22.7543 9.6605C22.7543 9.63074 22.7619 9.60216 22.7619 9.5724C22.7796 9.42388 22.777 9.27383 22.7543 9.12592C22.7031 9.01036 22.6187 8.91058 22.5106 8.8378C22.4059 8.73832 22.3366 8.61057 22.3124 8.47229Z" fill="#FDB9A9"/>
<path opacity="0.1" d="M22.4059 8.63422C22.5765 8.61402 22.7454 8.58178 22.9109 8.53778C22.9677 8.5223 23.0372 8.50921 23.0801 8.54731C23.0994 8.56835 23.1124 8.59381 23.118 8.62112C23.1385 8.67448 23.148 8.73108 23.1458 8.78781C23.1357 8.83519 23.1218 8.88177 23.1041 8.92711C23.096 8.94976 23.093 8.97376 23.0954 8.99756C23.0978 9.02135 23.1055 9.0444 23.118 9.06522C23.1584 9.1176 23.2442 9.13427 23.2632 9.19737C23.2821 9.26048 23.2329 9.28548 23.2177 9.32953C23.2013 9.38244 23.1899 9.43663 23.1836 9.49145C23.1824 9.55475 23.1722 9.61761 23.1533 9.67837C23.1396 9.70961 23.1185 9.73745 23.0916 9.75974C23.0647 9.78204 23.0326 9.7982 22.998 9.80696C22.9631 9.81501 22.9267 9.81555 22.8915 9.80855C22.8563 9.80154 22.8232 9.78716 22.7947 9.76648C22.7215 9.6924 22.677 9.59715 22.6685 9.49621L22.6003 9.17594C22.5803 9.06449 22.5499 8.95493 22.5094 8.84853C22.4686 8.77469 22.4213 8.70421 22.368 8.63779L22.4059 8.63422Z" fill="#020202"/>
<path d="M11.6568 14.7777C11.6568 14.7777 11.7351 15.0765 10.9838 15.3004C10.2326 15.5242 9.95477 14.7777 9.95477 14.7777C9.95477 14.7777 11.379 14.255 11.6568 14.7777Z" fill="#2F3554"/>
<path d="M7.79314 22.3297L7.88026 22.0142L8.10753 21.201C8.11415 21.1623 8.13258 21.1263 8.16056 21.0974C8.19465 21.07 8.30072 21.3784 8.34617 21.3748C8.59411 21.3615 8.84285 21.3787 9.08607 21.426C9.15173 21.4379 8.88531 24.9335 8.86258 25.2764C8.80829 26.0622 8.85248 27.6159 8.97496 27.6064C8.73127 27.6254 8.23253 27.6516 8.12774 27.5481C7.93834 27.3695 8.26284 26.2182 7.9093 24.8668C7.82235 24.5346 7.77409 24.1945 7.76536 23.8524C7.75147 23.356 7.66309 22.813 7.79314 22.3297Z" fill="#EFAC88"/>
<path d="M9.53557 26.2181C9.56319 26.1711 9.58602 26.1216 9.60375 26.0705C9.66183 25.8955 9.61764 25.7133 9.63027 25.5371C9.63784 25.444 9.63784 25.3505 9.63027 25.2573C9.61007 25.0192 9.57724 24.7811 9.54567 24.543C9.49138 24.1417 9.39163 23.7238 9.39163 23.3178C9.39163 23.0047 9.65931 22.0213 9.65931 22.0213L9.39163 20.739H10.7502C10.7502 20.739 10.9245 21.8106 10.8765 21.9296C10.7775 22.1729 10.7192 22.4291 10.7035 22.6892C10.7035 23.15 10.6378 23.6167 10.6 24.0763C10.557 24.5787 10.5149 25.0811 10.4737 25.5836C10.4586 25.7645 10.4421 25.9407 10.427 26.1253C10.4154 26.3912 10.4676 26.6561 10.5798 26.9004C10.6227 27.0111 10.6707 27.148 10.5886 27.2385C10.5065 27.329 10.3272 27.298 10.2098 27.2385C10.0429 27.1328 9.8663 27.0416 9.68204 26.9658C9.60886 26.9501 9.53891 26.9231 9.47496 26.8861C9.3487 26.7956 9.3487 26.6146 9.40678 26.4753C9.44457 26.3874 9.48757 26.3015 9.53557 26.2181Z" fill="#EFAC88"/>
<path d="M10.4106 11.2178C10.4106 11.2178 10.2566 10.8344 10.6063 11.2178C10.9561 11.6012 11.5179 13.8681 11.5179 13.8681C11.5179 13.8681 10.7313 14.5491 10.5078 14.4146C10.2843 14.28 10.4106 11.2178 10.4106 11.2178Z" fill="#2F3554"/>
<path d="M10.0734 7.60196C10.5141 7.77341 10.6214 8.38895 10.5898 8.77827C10.5507 9.26523 10.1176 9.75218 10.2666 10.2415C10.3638 10.4922 10.4092 10.7581 10.4004 11.0249C10.3727 11.2904 10.1984 11.5619 9.92442 11.6202C9.85894 11.6282 9.79484 11.6442 9.73376 11.6679C9.65555 11.721 9.59509 11.7941 9.55952 11.8786C9.30437 12.3655 8.85484 12.7372 8.30952 12.912C7.76533 13.068 7.12139 12.9477 6.73629 12.5548C6.35119 12.1619 6.29058 11.494 6.65675 11.0845C6.76154 10.9654 6.90296 10.8571 6.90927 10.7047C6.90553 10.6343 6.89411 10.5645 6.87518 10.4963C6.85493 10.3643 6.87913 10.2296 6.94437 10.1113C7.00961 9.99296 7.1126 9.89691 7.23882 9.83671C7.44336 9.74385 7.70346 9.74861 7.86129 9.59859C8.03806 9.42596 7.99513 9.15093 7.98755 8.91162C7.90801 7.6603 8.90927 7.15072 10.0734 7.60196Z" fill="#8B2F0C"/>
<path d="M7.20219 18.0578C7.09613 19.0341 7.28047 20.033 7.46608 21.0069C7.50901 21.2355 7.56204 21.4831 7.74259 21.6403C7.8845 21.7476 8.05314 21.8189 8.23249 21.8475C9.4102 22.1047 10.6453 21.9832 11.7413 21.5022L11.4623 19.0734C11.3891 18.4269 11.3095 17.7637 11.0633 17.1541C11.0178 17.041 10.3057 15.9171 10.4749 15.8207C10.1391 16.0159 9.74891 15.9873 9.36381 16.0719C8.9081 16.1727 8.46953 16.333 8.06078 16.5481C7.85133 16.6352 7.66969 16.7725 7.53391 16.9462C7.39813 17.12 7.31293 17.3243 7.28679 17.5387C7.24855 17.7101 7.22031 17.8834 7.20219 18.0578Z" fill="#68E1FD"/>
<path d="M7.20219 18.0578C7.09613 19.0341 7.28047 20.033 7.46608 21.0069C7.50901 21.2355 7.56204 21.4831 7.74259 21.6403C7.8845 21.7476 8.05314 21.8189 8.23249 21.8475C9.4102 22.1047 10.6453 21.9832 11.7413 21.5022L11.4623 19.0734C11.3891 18.4269 11.3095 17.7637 11.0633 17.1541C11.0178 17.041 10.3057 15.9171 10.4749 15.8207C10.1391 16.0159 9.74891 15.9873 9.36381 16.0719C8.9081 16.1727 8.46953 16.333 8.06078 16.5481C7.85133 16.6352 7.66969 16.7725 7.53391 16.9462C7.39813 17.12 7.31293 17.3243 7.28679 17.5387C7.24855 17.7101 7.22031 17.8834 7.20219 18.0578Z" fill="url(#paint4_linear_2212_690)"/>
<path d="M10.0507 10.182C10.0507 10.182 9.70854 10.5915 9.70727 10.8428C9.70366 11.0091 9.67951 11.1746 9.6353 11.3357C9.6353 11.3357 9.58101 11.6357 9.40424 11.519C9.22747 11.4023 8.60626 10.6166 8.60626 10.6166L9.28429 9.76408L10.0507 10.182Z" fill="#EFAC88"/>
<path d="M11.1037 17.4172C11.1037 17.4172 10.9648 15.9588 10.7072 15.3742C10.6357 15.1623 10.6184 14.9375 10.6567 14.7182C10.7085 14.2014 10.8752 13.7062 10.9648 13.1954C10.9921 12.9669 10.9741 12.7355 10.9118 12.5132C10.8175 12.0703 10.7072 11.6305 10.581 11.194C10.5699 11.1378 10.5443 11.0851 10.5065 11.0404C10.4634 11.0035 10.4121 10.9762 10.3562 10.9606L9.68073 10.7225C9.75144 10.9273 9.81836 11.1559 9.72114 11.3512C9.69735 11.4081 9.6525 11.4551 9.59488 11.4833C9.46861 11.5321 9.34235 11.4535 9.24134 11.3643C9.08844 11.224 8.9703 11.0537 8.89538 10.8654C8.8575 10.7671 8.83083 10.6654 8.81584 10.5618C8.80573 10.488 8.82846 10.3808 8.76912 10.3296C8.67316 10.4892 8.47493 10.5677 8.32467 10.6785C8.17442 10.7892 7.98124 10.9166 7.79942 11.0356C7.64783 11.1133 7.52429 11.2319 7.44462 11.3762C7.4055 11.498 7.4055 11.6281 7.44462 11.75C7.47619 11.8857 7.52543 12.0179 7.55195 12.1548C7.57722 12.3289 7.5924 12.5042 7.5974 12.6799C7.62768 12.9411 7.67704 13.2001 7.74513 13.4549C7.77076 13.6107 7.78636 13.7677 7.79185 13.9252C7.79185 13.9252 8.04437 14.811 7.99387 15.0277C7.94336 15.2444 7.47114 16.0814 7.44462 16.4481C7.41811 16.8148 7.59614 17.5851 7.59614 17.5851C7.59614 17.5851 8.03301 17.6125 8.51786 17.6304C9.08856 17.6506 10.1239 17.4232 10.2009 17.3506C10.3019 17.2553 10.3575 16.5755 10.3487 16.1219C10.5785 16.8267 10.759 17.4172 10.759 17.4172H11.1037Z" fill="#2F3554"/>
<path d="M7.7426 18.309C7.83729 18.3352 7.86886 18.415 7.93957 18.515C8.03424 18.654 8.12147 18.7975 8.20093 18.9448C8.2118 18.9551 8.21791 18.969 8.21791 18.9835C8.21791 18.998 8.2118 19.0119 8.20093 19.0222C8.19159 19.0304 8.17958 19.0355 8.16684 19.0365C8.08599 19.0639 7.99892 19.0709 7.91431 19.0567C7.88184 19.2474 7.91271 19.4428 8.0027 19.6163C8.02416 19.658 8.04689 19.7139 8.01154 19.7473C7.99513 19.7591 7.97536 19.7662 7.95472 19.7675C7.77412 19.7785 7.59431 19.7369 7.43957 19.6484C7.34973 19.6112 7.26765 19.5592 7.19714 19.4948C7.10134 19.3876 7.03115 19.2621 6.99133 19.127C6.99133 19.041 7.00021 18.9553 7.01785 18.871C7.01785 18.8317 7.06078 18.3185 7.0734 18.3185L7.65926 18.2971C7.68751 18.2972 7.71558 18.3012 7.7426 18.309Z" fill="#FDC099"/>
<path d="M7.74638 18.1054L7.79309 18.3281L6.9787 18.4614V18.2054L7.74638 18.1054Z" fill="white"/>
<path d="M7.74639 15.1777C7.74639 15.1777 8.39411 13.7085 8.30573 13.1906C8.21735 12.6727 7.84487 11.4643 7.56962 11.475C7.29437 11.4857 7.20724 11.8322 7.20724 12.1536C7.20724 12.4751 6.65421 15.3742 6.61886 15.6421C6.58351 15.91 6.93073 18.3805 6.93073 18.3805L7.85245 18.1888L7.74639 15.1777Z" fill="#2F3554"/>
<path d="M10.225 8.01034C10.2398 8.01851 10.2527 8.02945 10.2629 8.04248C10.3285 8.14954 10.3714 8.26762 10.3891 8.39014C10.5672 8.98544 10.8096 9.55216 10.4624 10.1427C10.4374 10.1913 10.4016 10.2344 10.3576 10.2689C10.3122 10.2984 10.2604 10.3179 10.206 10.3261C9.95034 10.3758 9.68418 10.336 9.45731 10.2141C9.32735 10.1556 9.2009 10.0905 9.07852 10.0189C9.02561 9.98372 8.98233 9.9372 8.95226 9.88315C8.92448 9.82719 8.87903 9.77242 8.89797 9.70694C8.91186 9.6617 8.93964 9.62241 8.94974 9.57597C8.96003 9.50347 8.9459 9.42975 8.90933 9.36524C8.90068 9.35137 8.8951 9.33599 8.89293 9.32002C8.89076 9.30406 8.89205 9.28785 8.89671 9.27237C8.91943 9.22118 8.99519 9.22475 9.05327 9.21165C9.10066 9.19475 9.14366 9.16847 9.17938 9.13458C9.2151 9.1007 9.2427 9.05999 9.26034 9.0152C9.31621 8.90874 9.35859 8.79645 9.3866 8.68064C9.40415 8.58066 9.43468 8.48309 9.47751 8.39014C9.56189 8.26246 9.68386 8.16069 9.82852 8.09725C9.92827 8.04248 10.1151 7.94605 10.225 8.01034Z" fill="#FDC099"/>
<path d="M10.5066 8.8759L10.5634 8.82947C10.5634 8.82947 10.5798 8.8628 10.6 8.85923C10.618 8.85465 10.6353 8.84827 10.6518 8.84018C10.6518 8.84018 10.6202 8.88304 10.5988 8.88662C10.569 8.89019 10.5389 8.89019 10.5091 8.88662L10.5066 8.8759Z" fill="#8A3C1F"/>
<path d="M10.5558 8.83304L10.5798 8.79256C10.5798 8.79256 10.5988 8.80923 10.6114 8.80209C10.6211 8.79549 10.63 8.7879 10.6379 8.77946C10.6379 8.77946 10.6303 8.8128 10.6177 8.81994C10.5986 8.82729 10.5787 8.83287 10.5584 8.83661L10.5558 8.83304Z" fill="#8A3C1F"/>
<path d="M13.3298 12.6882H10.9674L8.94214 15.1027L11.1707 15.0182L13.3298 12.6882Z" fill="#68E1FD"/>
<path d="M11.9258 14.6634C11.9287 14.6401 11.9333 14.617 11.9396 14.5943C11.9695 14.4448 11.9652 14.291 11.927 14.1431C11.8888 13.9939 11.7917 13.8641 11.6556 13.78C11.6452 13.774 11.6342 13.7692 11.6227 13.7657C11.6046 13.7657 11.5872 13.7722 11.574 13.7839C11.5609 13.7957 11.553 13.8117 11.552 13.8288C11.5517 13.863 11.5599 13.8969 11.576 13.9276C11.6177 14.0256 11.6469 14.1279 11.6631 14.2324L11.5444 14.105C11.5118 14.0632 11.4683 14.03 11.4182 14.0086C11.3922 13.9991 11.3633 13.9994 11.3376 14.0097C11.3119 14.0199 11.2915 14.0391 11.2806 14.0633C11.2745 14.0928 11.279 14.1234 11.2932 14.1502L11.4043 14.4539C11.3527 14.3567 11.2701 14.2771 11.1682 14.2264C11.1479 14.2527 11.1369 14.2844 11.1369 14.3169C11.1369 14.3495 11.1479 14.3811 11.1682 14.4074C11.2084 14.462 11.2426 14.5202 11.2705 14.5812C11.2439 14.5517 11.2199 14.5202 11.1985 14.4872C11.172 14.4574 11.1215 14.4384 11.0912 14.4646C11.0609 14.4908 11.071 14.5277 11.0798 14.5598C11.1558 14.7875 11.1858 15.0266 11.1682 15.2646L11.3096 15.2349C11.4215 15.1998 11.5273 15.1497 11.624 15.0861C11.7043 15.0411 11.7731 14.9798 11.8253 14.9067C11.8774 14.8336 11.9118 14.7505 11.9258 14.6634Z" fill="#EFAC88"/>
<path d="M26.6635 14.4646C26.7065 14.43 26.7734 14.4038 26.8163 14.4384C26.8295 14.4523 26.8394 14.4688 26.8453 14.4867C26.8511 14.5046 26.8529 14.5234 26.8504 14.542V14.7551C27.2355 14.6444 27.5259 14.3527 27.8087 14.0836C27.8681 14.0264 27.9552 13.9645 28.0284 14.005C28.0549 14.0234 28.0747 14.049 28.0853 14.0784C28.0959 14.1078 28.0968 14.1395 28.0878 14.1693C28.0661 14.2267 28.0512 14.2862 28.0436 14.3467C28.0436 14.4443 28.1181 14.5289 28.1282 14.6253C28.1395 14.7444 28.0537 14.8515 28.0423 14.9706V15.0896C28.0232 15.1622 27.9855 15.2293 27.9325 15.2849C27.8054 15.4657 27.6366 15.6171 27.4388 15.7278C27.3033 15.7834 27.16 15.8199 27.0133 15.8361L26.5549 15.91C26.5102 15.9207 26.4633 15.9207 26.4186 15.91C26.2809 15.8659 26.238 15.654 26.2431 15.5373C26.2632 15.4284 26.3061 15.3244 26.3693 15.2313C26.464 14.9837 26.435 14.6455 26.6635 14.4646Z" fill="#A67C52"/>
<path d="M13.1001 13.1525C13.0698 13.1073 13.0142 13.0644 12.9624 13.0847C12.9455 13.0944 12.9308 13.1073 12.9195 13.1227C12.9082 13.1381 12.9005 13.1556 12.8968 13.174L12.8273 13.3764C12.494 13.1632 12.3084 12.8037 12.124 12.4667C12.0849 12.3953 12.0218 12.3132 11.9384 12.331C11.9083 12.3418 11.8825 12.3611 11.8644 12.3862C11.8463 12.4113 11.8369 12.4411 11.8374 12.4715C11.8391 12.5321 11.8345 12.5927 11.8235 12.6525C11.7932 12.7453 11.6973 12.8061 11.6543 12.8906C11.6064 13.0001 11.6543 13.1287 11.6278 13.2478C11.619 13.2859 11.6013 13.3228 11.595 13.3668C11.5899 13.4414 11.6052 13.516 11.6392 13.5835C11.7028 13.7921 11.8159 13.9843 11.97 14.1455C12.0818 14.236 12.2068 14.311 12.3412 14.3681L12.7566 14.567C12.7951 14.5885 12.8383 14.6015 12.8829 14.6051C13.0281 14.6051 13.1354 14.4122 13.1682 14.2991C13.1834 14.1902 13.177 14.0795 13.1493 13.9728C13.1266 13.705 13.2591 13.3942 13.1001 13.1525Z" fill="#A67C52"/>
<path d="M17.0446 32.5236C17.0465 32.5331 17.0499 32.5424 17.0547 32.551C17.1116 32.6891 17.2921 32.7355 17.4487 32.7522C17.5945 32.7684 17.7413 32.7752 17.8881 32.7724C17.9578 32.7741 18.0273 32.7648 18.0939 32.745C18.1561 32.7197 18.2143 32.6865 18.2669 32.6462L18.6886 32.3509C18.8076 32.2746 18.9158 32.1841 19.0105 32.0819C19.1057 31.9785 19.1554 31.8448 19.1494 31.708C19.1454 31.6401 19.1189 31.575 19.0736 31.522C19.0283 31.4691 18.9665 31.4308 18.8969 31.4127C18.8086 31.4044 18.7194 31.4068 18.6318 31.4199C18.4512 31.4282 18.1987 31.358 18.1267 31.1818C18.1077 31.1067 18.0634 31.0394 18.0004 30.9901C17.9391 30.9641 17.8708 30.9566 17.8047 30.9686C17.6577 30.9742 17.5125 31.0011 17.3742 31.0484C17.3049 31.0719 17.2422 31.1098 17.1906 31.1592C17.139 31.2087 17.0999 31.2685 17.0762 31.3342C17.0598 31.3952 17.0534 31.4582 17.0573 31.5211C17.0648 31.65 17.0648 31.7791 17.0573 31.908C17.0368 32.07 17.0271 32.233 17.0282 32.3962C17.0292 32.439 17.0347 32.4817 17.0446 32.5236Z" fill="#262836"/>
<path d="M21.1432 32.5736C20.8591 32.6962 20.5668 32.8012 20.2682 32.8879C20.1484 32.9366 20.0142 32.9438 19.8894 32.9081C19.8396 32.8847 19.796 32.8512 19.7615 32.81C19.727 32.7689 19.7026 32.7211 19.6899 32.67C19.6632 32.5692 19.6522 32.4654 19.6571 32.3616C19.6571 32.189 19.7328 32.0557 19.7619 31.8914C19.7884 31.7485 19.8098 31.6044 19.8313 31.4615C19.8616 31.2568 19.8894 31.052 19.9172 30.846L20.6747 30.9996C20.7543 31.0151 20.83 31.3044 20.8768 31.3651C20.9129 31.4098 20.959 31.4466 21.0117 31.4727C21.0645 31.4988 21.1228 31.5137 21.1823 31.5163C21.3086 31.5223 21.4437 31.4663 21.5737 31.4866C21.6575 31.506 21.7321 31.5507 21.7864 31.6139C21.8407 31.6771 21.8715 31.7553 21.8742 31.8366C21.8731 31.9178 21.8544 31.9979 21.8192 32.072C21.784 32.1461 21.7332 32.2127 21.6697 32.2676C21.5415 32.3761 21.3952 32.4638 21.2366 32.5271L21.1432 32.5736Z" fill="#262836"/>
<path d="M21.1494 31.7747C20.9504 31.8815 20.7437 31.975 20.5307 32.0545L20.5093 32.0628C20.1583 32.1914 19.7656 31.6723 19.7656 31.6723C19.7656 31.6723 19.2694 28.7815 19.2921 27.5838C19.3073 26.7611 19.1014 25.5883 18.7871 23.4607C18.7088 25.6336 18.3186 26.5884 18.4184 27.3671C18.5699 28.5517 18.3893 31.4937 18.3893 31.4937C18.3893 31.4937 18.0573 32.0664 17.6924 31.989H17.6709C17.4517 31.9417 17.2364 31.8792 17.027 31.802C17.027 31.802 16.6027 27.754 16.6027 26.6825C16.6027 25.6109 16.6494 24.6585 16.6494 24.6585L16.4285 21.2736L17.3742 19.9794L17.4512 19.9485L17.5244 19.8806L18.5724 19.1555C18.5724 19.1555 18.5724 19.3246 18.5535 19.6139L19.3666 20.0258L19.4461 20.0818L19.5257 20.1009L20.8906 20.3259C20.8906 20.3259 21.2492 25.5145 21.3641 26.5765C21.479 27.6385 21.1494 31.7747 21.1494 31.7747Z" fill="#68E1FD"/>
<path d="M21.1494 31.7747C20.9504 31.8815 20.7437 31.975 20.5307 32.0545L20.5093 32.0628C20.1583 32.1914 19.7656 31.6723 19.7656 31.6723C19.7656 31.6723 19.2694 28.7815 19.2921 27.5838C19.3073 26.7611 19.1014 25.5883 18.7871 23.4607C18.7088 25.6336 18.3186 26.5884 18.4184 27.3671C18.5699 28.5517 18.3893 31.4937 18.3893 31.4937C18.3893 31.4937 18.0573 32.0664 17.6924 31.989H17.6709C17.4517 31.9417 17.2364 31.8792 17.027 31.802C17.027 31.802 16.6027 27.754 16.6027 26.6825C16.6027 25.6109 16.6494 24.6585 16.6494 24.6585L16.4285 21.2736L17.3742 19.9794L17.4512 19.9485L17.5244 19.8806L18.5724 19.1555C18.5724 19.1555 18.5724 19.3246 18.5535 19.6139L19.3666 20.0258L19.4461 20.0818L19.5257 20.1009L20.8906 20.3259C20.8906 20.3259 21.2492 25.5145 21.3641 26.5765C21.479 27.6385 21.1494 31.7747 21.1494 31.7747Z" fill="url(#paint5_linear_2212_690)"/>
<path d="M20.0181 11.2964C20.104 11.3774 20.2328 11.4607 20.1974 11.5678C20.1785 11.625 20.1141 11.6583 20.0712 11.6988C20.0095 11.7575 19.9609 11.8273 19.9282 11.9039C19.8954 11.9806 19.8792 12.0627 19.8805 12.1453C19.8858 12.3068 19.8614 12.4679 19.8086 12.6215C19.779 12.6986 19.7222 12.7638 19.6477 12.806C19.5732 12.8483 19.4855 12.8651 19.3995 12.8537C19.2997 12.8275 19.2 12.7465 19.104 12.7846C19.0308 12.8144 19.008 12.9037 18.9702 12.9632C18.9157 13.04 18.8395 13.1007 18.7502 13.1386C18.6609 13.1765 18.5621 13.19 18.4651 13.1775C18.2719 13.1512 18.0857 13.091 17.9159 13.0001C17.8432 12.9738 17.7804 12.9278 17.7353 12.868C17.706 12.8106 17.6989 12.7453 17.7151 12.6834C17.7505 12.4941 17.8894 12.3382 18.0017 12.1751C18.2101 11.8736 18.3351 11.5277 18.3654 11.169C18.3856 10.919 18.3654 10.6439 18.5358 10.4546C18.7669 10.1915 19.325 10.1939 19.6116 10.3868C19.9411 10.5856 19.7543 11.038 20.0181 11.2964Z" fill="#A67C52"/>
<path d="M19.6759 10.1641C19.642 10.2262 19.591 10.2784 19.5282 10.3153C19.4019 10.3856 19.2933 10.4677 19.1709 10.5451C19.0551 10.6185 18.9737 10.731 18.9436 10.8594C18.8918 11.0976 19.0282 11.3464 18.9436 11.5738C18.9146 11.619 18.8337 11.5917 18.8009 11.5464C18.7681 11.5012 18.7517 11.444 18.7024 11.4166C18.6191 11.3714 18.5168 11.4476 18.4815 11.5357C18.4444 11.634 18.4491 11.7421 18.4945 11.8372C18.5399 11.9324 18.6226 12.0074 18.7252 12.0465C18.7138 12.1191 18.6128 12.1489 18.5345 12.1381C18.4568 12.118 18.3764 12.1084 18.2959 12.1096C18.1153 12.1417 18.0433 12.3846 17.8666 12.4096C17.8043 12.4054 17.7439 12.3879 17.6898 12.3584C17.6358 12.3289 17.5896 12.2882 17.5547 12.2393L17.335 12.0012C17.3001 11.9588 17.2616 11.919 17.2201 11.8822C17.1709 11.8453 17.0938 11.8429 17.0484 11.7988C17.0029 11.7548 17.0484 11.6536 17.0042 11.5988C16.9823 11.5798 16.9565 11.5653 16.9284 11.5559C16.8652 11.5259 16.8148 11.4762 16.7859 11.4153C16.7569 11.3544 16.751 11.2859 16.7694 11.2214C16.7744 11.2051 16.7744 11.1877 16.7694 11.1714C16.7618 11.1499 16.734 11.1392 16.7113 11.1285C16.6441 11.0888 16.5943 11.0276 16.5711 10.9561C16.5479 10.8845 16.5528 10.8075 16.585 10.7392C16.6204 10.6596 16.6723 10.5875 16.7378 10.5273C16.762 10.4945 16.7953 10.4686 16.834 10.4524C16.8728 10.4362 16.9155 10.4304 16.9575 10.4356L16.9916 10.1379C16.9945 10.0774 17.01 10.0179 17.037 9.96292C17.109 9.84386 17.2744 9.8129 17.4158 9.79742L17.3552 9.54978C17.3481 9.53459 17.3444 9.51817 17.3444 9.50156C17.3444 9.48495 17.3481 9.46853 17.3552 9.45334C17.3744 9.43136 17.4012 9.41658 17.431 9.41167C17.5161 9.39039 17.6032 9.37683 17.6911 9.37119C17.6582 9.30248 17.6332 9.23063 17.6166 9.15688C17.6128 9.14282 17.6128 9.12809 17.6166 9.11402C17.6241 9.10068 17.6357 9.08979 17.6499 9.08278C17.6641 9.07577 17.6802 9.07296 17.6961 9.07473C17.7282 9.08067 17.7612 9.08067 17.7933 9.07473C17.7933 9.07473 17.7454 8.86757 17.7428 8.84852C17.7352 8.81607 17.7345 8.7825 17.7408 8.74979C17.7471 8.71708 17.7602 8.68589 17.7795 8.65802C17.8051 8.62921 17.8383 8.60715 17.8757 8.59401C17.9131 8.58086 17.9534 8.57708 17.9928 8.58302C18.0714 8.59637 18.1469 8.62213 18.2163 8.65921C18.2087 8.57944 18.3173 8.54015 18.4045 8.53301C18.5667 8.5242 18.7287 8.5543 18.8754 8.62051C19.022 8.68671 19.1484 8.78687 19.2428 8.91162C19.2577 8.93391 19.2755 8.95432 19.2959 8.97234C19.3346 8.99626 19.3773 9.01396 19.4221 9.02473C19.4903 9.05332 19.5509 9.09581 19.5996 9.14913C19.6483 9.20244 19.6838 9.26527 19.7037 9.33309C19.7404 9.46832 19.7553 9.608 19.7479 9.74742C19.7519 9.85422 19.7413 9.96107 19.7163 10.0653C19.7067 10.0995 19.6932 10.1327 19.6759 10.1641Z" fill="#2F3554"/>
<path d="M18.4777 12.7406C18.6782 12.8203 18.8731 12.9121 19.061 13.0156C19.119 13.0446 19.1694 13.0852 19.2088 13.1347C19.2292 13.1621 19.2418 13.1941 19.2453 13.2274C19.2488 13.2608 19.2432 13.2945 19.229 13.3252C19.1759 13.4109 19.0572 13.3787 18.9651 13.349C18.5396 13.1894 18.0812 13.1752 17.6444 13.1763C17.6143 13.1805 17.5835 13.1768 17.5555 13.1657C17.5274 13.1546 17.5032 13.1365 17.4853 13.1132C17.4746 13.0856 17.4707 13.0561 17.4737 13.0268C17.4768 12.9976 17.4868 12.9693 17.5029 12.9442C17.734 12.512 18.1052 12.581 18.4777 12.7406Z" fill="white"/>
<path d="M26.7305 16.0921C26.6436 16.2967 26.5149 16.4832 26.3517 16.641C26.1964 16.8065 26.0348 16.966 25.8668 17.1172C25.4714 17.4792 25.0536 17.8187 24.6155 18.134C24.3036 18.3614 23.9703 18.5852 23.5814 18.6567C23.4266 18.6912 23.2645 18.6817 23.1155 18.6293C22.9921 18.5697 22.8816 18.489 22.7897 18.3912C22.6773 18.2864 21.3894 16.8886 21.368 16.8886C21.2952 16.9255 21.2391 16.986 21.2101 17.0589C21.0235 17.4216 20.9084 17.8134 20.8705 18.2149C20.8553 18.3948 20.8553 18.5756 20.8705 18.7555C20.921 19.3663 21.1483 19.9961 20.9235 20.5723C20.8797 20.6949 20.8057 20.8058 20.7076 20.8962C20.6126 20.9736 20.5035 21.0341 20.3856 21.0748C20.1783 21.1557 19.9618 21.214 19.7404 21.2486C19.6153 21.27 19.4887 21.2832 19.3616 21.2879C18.8906 21.3045 18.4209 21.2176 17.95 21.2403C17.5484 21.2593 17.152 21.3593 16.7504 21.3438C16.6765 21.3493 16.6022 21.3393 16.5328 21.3146C16.4634 21.2899 16.4006 21.2511 16.3489 21.201C16.3035 21.1351 16.2753 21.06 16.2668 20.9819C16.1102 20.1726 16.0295 19.3519 16.0257 18.5293C16.0257 18.1495 15.96 16.7612 15.8249 16.5052C15.8085 16.4743 15.7908 16.4588 15.7731 16.4636C15.3236 16.5826 14.3589 16.8208 13.9019 16.897C13.8357 16.912 13.7672 16.9152 13.6998 16.9065C13.6305 16.8897 13.5658 16.8588 13.5104 16.816C12.9448 16.4243 12.6266 15.8409 12.4258 15.2265C12.3867 15.1075 12.3513 14.9884 12.3185 14.8694C12.3013 14.8377 12.2909 14.803 12.288 14.7675C12.285 14.732 12.2896 14.6963 12.3013 14.6625C12.313 14.6286 12.3317 14.5973 12.3564 14.5702C12.381 14.5432 12.411 14.5211 12.4448 14.505C12.4524 14.5008 12.4604 14.4972 12.4688 14.4943L13.316 13.98L13.9473 14.7396C14.0736 14.8872 14.2175 15.0468 14.4183 15.0682C14.6936 15.0944 14.9006 14.8587 15.0698 14.6574C15.6183 14.0077 16.3218 13.4892 17.1229 13.1442C17.2404 13.0909 17.3642 13.051 17.4916 13.0251L17.5232 13.018C17.5414 13.0132 17.56 13.0096 17.5787 13.0073C17.7434 12.9931 17.9094 13.0024 18.0712 13.0347C19.1464 13.2058 20.2101 13.436 21.2569 13.724C21.3821 13.7416 21.5012 13.7868 21.6046 13.8559C21.7079 13.925 21.7925 14.016 21.8516 14.1217C22.1458 14.5396 22.4324 14.9622 22.7278 15.3801C22.9804 15.7373 23.2329 16.1897 23.6117 16.4517C24.4309 16.1387 25.2041 15.7277 25.9123 15.2289C26.012 15.1587 26.1383 15.0825 26.2532 15.1289C26.2899 15.1459 26.3229 15.1694 26.3504 15.198C26.6219 15.454 26.8668 15.704 26.7305 16.0921Z" fill="white"/>
<path d="M32.8582 13.293C32.7458 13.3833 32.6105 13.4445 32.4655 13.4704C32.3329 13.4755 32.2007 13.4535 32.0778 13.4061L30.199 12.8108C30.0573 12.9149 29.9627 13.0657 29.9341 13.2329C29.9055 13.4001 29.9451 13.5713 30.045 13.7121C30.204 13.9205 30.478 14.0193 30.7344 14.1062L32.0223 14.5432C32.2753 14.6417 32.5418 14.7062 32.814 14.7348C33.1928 14.7587 33.5627 14.6444 33.9226 14.5313C34.3077 14.4122 34.7294 14.261 34.9138 13.9193C35.0981 13.5776 34.9643 13.1275 35.0186 12.7287C35.0552 12.4691 35.1764 12.2203 35.1713 11.9584C35.165 11.7345 34.9756 11.3976 34.6928 11.444C34.4491 11.4845 34.2862 11.8846 34.1574 12.0524C33.7949 12.5268 33.3566 12.9453 32.8582 13.293Z" fill="white"/>
<path d="M29.9641 12.7144C29.9432 12.6671 29.9133 12.624 29.8757 12.587C29.8564 12.5689 29.8319 12.5565 29.8053 12.5512C29.7786 12.5459 29.7509 12.548 29.7255 12.5572C29.7008 12.5717 29.6809 12.5924 29.6681 12.6171C29.6554 12.6417 29.6503 12.6693 29.6535 12.6965C29.6562 12.7152 29.6517 12.7342 29.6409 12.7501C29.6326 12.7558 29.623 12.7595 29.6128 12.7607C29.6027 12.762 29.5923 12.7608 29.5828 12.7573C29.3694 12.718 29.1535 12.6882 28.9363 12.668C28.9183 12.6656 28.9001 12.6656 28.882 12.668C28.8466 12.6797 28.8174 12.7037 28.8002 12.7352C28.7831 12.7666 28.7794 12.8031 28.7899 12.837C28.8136 12.9044 28.849 12.9676 28.8947 13.024C29.0045 13.1942 29.0462 13.4192 29.223 13.53C29.3307 13.5886 29.4554 13.6132 29.579 13.6002C29.7053 13.5942 29.8252 13.5728 29.949 13.5776C30.0313 13.5944 30.1173 13.5856 30.1939 13.5526C30.2223 13.5323 30.2449 13.5057 30.2597 13.4752C30.2744 13.4446 30.2809 13.4111 30.2785 13.3776C30.2658 13.2723 30.2254 13.1716 30.1611 13.0847C30.0929 12.9632 30.0272 12.8394 29.9641 12.7144Z" fill="#FDB9A9"/>
<path d="M35.2041 26.0527C34.4844 25.8991 34.6259 26.8623 34.4365 27.2194C34.3168 27.4 34.1667 27.5608 33.992 27.6957C33.8291 27.8457 33.6764 28.0291 33.6675 28.2422C33.6625 28.2834 33.6713 28.325 33.6928 28.3612C33.7293 28.4027 33.7795 28.4312 33.8354 28.4422C34.2471 28.554 34.6887 28.5114 35.0678 28.3231C35.2453 28.243 35.3928 28.1139 35.4908 27.9529C35.5695 27.7801 35.6066 27.5931 35.5993 27.4052C35.6157 27.0099 35.8039 26.1789 35.2041 26.0527Z" fill="#FDB9A9"/>
<path d="M34.5677 28.0338C34.5677 28.0338 32.5198 28.116 33.3872 28.7232C34.2546 29.3304 35.5488 28.5743 35.6751 28.4362C35.8013 28.2981 35.699 28.0612 35.699 28.0612L34.5677 28.0338Z" fill="#68E1FD"/>
<path d="M35.5867 28.3005C35.4036 28.5101 34.4415 28.7922 34.016 28.7636C33.5905 28.7351 33.2079 28.547 33.2496 28.2874C33.2912 28.0279 34.0438 27.4242 34.1852 27.4254C34.3266 27.4266 34.4377 27.7362 34.7231 27.8005C34.8505 27.8198 34.9811 27.808 35.1025 27.7663C35.2238 27.7247 35.3318 27.6544 35.4162 27.5623C35.442 27.529 35.4792 27.505 35.5216 27.4946C35.5639 27.4842 35.6088 27.4879 35.6486 27.5052C35.7471 27.6421 35.7698 28.091 35.5867 28.3005Z" fill="white"/>
<path d="M37.6727 26.4325C36.953 26.2753 37.0944 27.2373 36.905 27.5945C36.7866 27.7776 36.6363 27.9406 36.4605 28.0767C36.2977 28.2267 36.1461 28.41 36.1373 28.6232C36.1317 28.6642 36.1401 28.7059 36.1613 28.7422C36.1976 28.7844 36.2486 28.8131 36.3052 28.8232C36.7165 28.9344 37.1575 28.8918 37.5363 28.7041C37.7138 28.624 37.8613 28.4948 37.9593 28.3338C38.038 28.1611 38.0751 27.9741 38.0679 27.7862C38.0843 27.3849 38.2724 26.5515 37.6727 26.4325Z" fill="#FDB9A9"/>
<path d="M37.0362 28.4053C37.0362 28.4053 34.9883 28.4862 35.8557 29.0934C36.7231 29.7006 38.0186 28.947 38.1436 28.8077C38.2686 28.6684 38.1676 28.4315 38.1676 28.4315L37.0362 28.4053Z" fill="#68E1FD"/>
<path d="M38.0552 28.6672C37.8721 28.8791 36.91 29.1601 36.4845 29.1315C36.059 29.103 35.6764 28.916 35.7181 28.6553C35.7597 28.3946 36.5123 27.7909 36.6537 27.7921C36.7951 27.7933 36.9062 28.1029 37.1916 28.166C37.3191 28.1853 37.4497 28.1735 37.571 28.1318C37.6923 28.0902 37.8003 28.0199 37.8847 27.9278C37.9105 27.8945 37.9477 27.8705 37.9901 27.8601C38.0324 27.8497 38.0773 27.8534 38.1171 27.8707C38.2156 28.0124 38.2383 28.4565 38.0552 28.6672Z" fill="white"/>
<path d="M35.8178 17.6744L36.7799 27.2218L38.1688 27.0599C38.7168 24.7311 38.583 17.7601 38.583 17.7601L35.8178 17.6744Z" fill="#473F47"/>
<path d="M36.7799 17.4161L35.8178 26.9635L34.4289 26.8015C33.636 20.7605 34.2887 16.9994 34.2887 16.9994L36.7799 17.4161Z" fill="#473F47"/>
<path d="M34.4099 13.9633C34.3935 13.7883 34.3443 13.6145 34.3241 13.4359C34.2788 13.0755 34.286 12.711 34.3456 12.3525C34.4108 11.9707 34.5328 11.5996 34.7079 11.25C34.8683 10.9475 35.1574 10.819 35.4819 10.6678C35.7539 10.5287 36.0489 10.434 36.3544 10.388C36.5705 10.3692 36.7883 10.3805 37.0009 10.4213C37.6537 10.5404 38.5161 10.8571 38.9618 11.3428C39.2977 11.7083 39.3406 12.231 39.3482 12.7144C39.3625 13.3819 39.3478 14.0487 39.304 14.7146C39.304 14.811 39.2914 14.9075 39.2838 15.0039C39.2232 15.7349 39.1575 16.4934 38.9391 17.1994C38.8697 17.4208 38.7964 17.6435 38.5792 17.7625C38.0742 18.0435 37.285 17.8887 36.7332 17.8161C35.9996 17.7173 35.2471 17.6149 34.5968 17.2803C34.4617 17.2242 34.3521 17.1246 34.2875 16.9994C34.2307 16.8493 34.3001 16.6862 34.3493 16.5338C34.569 15.8516 34.3986 15.1349 34.3986 14.4384C34.3986 14.3122 34.4163 14.1836 34.4163 14.0574C34.415 14.0264 34.4099 13.9943 34.4099 13.9633Z" fill="white"/>
<path opacity="0.1" d="M36.4605 17.1684C36.4556 17.0954 36.4745 17.0226 36.5148 16.9601C36.5982 16.8636 36.7573 16.8839 36.8848 16.9136L37.7093 17.1065C38.0212 17.1791 38.4997 17.4637 38.5806 17.7601C38.8975 17.5506 38.9796 17.1982 39.0389 16.8374C39.0982 16.4767 39.1008 15.773 39.1652 15.4087C38.762 15.6823 38.2815 15.8365 37.7851 15.8516C37.3166 15.8635 36.7282 15.8516 36.5578 15.3754C36.3621 14.8182 36.2939 14.2336 36.1638 13.6621C36.1642 13.6489 36.1613 13.6358 36.1555 13.6238C36.1496 13.6118 36.141 13.6012 36.1301 13.5928C36.1193 13.5844 36.1066 13.5785 36.0929 13.5754C36.0793 13.5724 36.0651 13.5723 36.0514 13.5752L34.2711 13.5931C34.2433 13.5918 34.2157 13.5967 34.1903 13.6073C34.1385 13.6371 34.1385 13.7073 34.1474 13.7633C34.2136 14.1427 34.4154 14.4893 34.7193 14.7456C34.8645 14.8646 34.9592 14.9432 34.987 15.1206C35.0211 15.3301 35.0123 15.5528 35.035 15.7659C35.0739 16.2138 35.178 16.6544 35.3444 17.0756C35.5994 17.6744 36.4126 18.1423 36.4605 17.1684Z" fill="#020202"/>
<path d="M35.9743 17.653H33.3241L32.9945 13.7669H35.646L35.9743 17.653Z" fill="#68E1FD"/>
<path d="M35.8203 9.42954C35.8217 9.24608 35.834 9.06285 35.857 8.88067C35.8746 8.72232 35.9011 8.56278 35.934 8.40443C35.9357 8.35853 35.9478 8.3135 35.9696 8.27242C35.9914 8.23133 36.0223 8.19515 36.0602 8.16631C36.3203 8.015 36.6209 7.93731 36.9264 7.94248C37.1089 7.91541 37.2953 7.95776 37.4447 8.06023C37.5941 8.1627 37.6942 8.31691 37.7231 8.48897C37.7292 8.52279 37.7321 8.55705 37.732 8.59136C37.7774 8.99259 37.6676 9.39263 37.6057 9.79148C37.5575 10.1004 37.5402 10.4129 37.5539 10.7249C37.3939 10.8252 37.2099 10.8866 37.0186 10.9035C36.9292 10.9034 36.8404 10.8893 36.7559 10.8618C36.7322 10.8577 36.7097 10.8491 36.6895 10.8366C36.6693 10.8242 36.652 10.808 36.6385 10.7892C36.6255 10.7561 36.6225 10.7203 36.6297 10.6856C36.6345 10.6533 36.6375 10.6207 36.6385 10.588C36.6524 10.4055 36.6486 10.2222 36.6272 10.0403C36.6277 10.0327 36.6266 10.025 36.6237 10.0178C36.6209 10.0106 36.6165 10.0041 36.6107 9.99864C36.5975 9.99507 36.5835 9.99507 36.5703 9.99864H36.516C36.4198 10.0058 36.3231 10.0058 36.2269 9.99864C36.1116 9.98677 36.0047 9.93653 35.9251 9.85696C35.8338 9.73226 35.7963 9.5794 35.8203 9.42954Z" fill="#FDB9A9"/>
<path d="M36.213 8.25323C36.1459 8.27942 36.0705 8.27942 36.0034 8.25323C35.933 8.21772 35.8747 8.16404 35.8355 8.09845C35.7566 7.98663 35.7278 7.84999 35.7552 7.71823C35.7827 7.58647 35.8641 7.47024 35.9819 7.39481C36.0727 7.33455 36.1752 7.29193 36.2836 7.26945C36.392 7.24696 36.5041 7.24506 36.6132 7.26384C36.6707 7.22932 36.7352 7.2066 36.8026 7.19717C37.0632 7.12238 37.3387 7.10647 37.6069 7.15074C37.7591 7.19243 37.902 7.25979 38.0287 7.34957C38.1514 7.42602 38.2559 7.52577 38.3355 7.64245C38.4123 7.79208 38.4606 7.95328 38.4781 8.11869C38.5193 8.29555 38.5417 8.47581 38.5451 8.65684C38.5447 8.73589 38.5289 8.8142 38.4983 8.88782C38.4603 8.96918 38.4059 9.04278 38.338 9.10451C38.2384 9.19881 38.1248 9.27901 38.0009 9.34263C37.915 9.38787 37.8153 9.4343 37.7862 9.5236C37.7776 9.56516 37.7734 9.60744 37.7736 9.6498C37.7686 9.71208 37.7419 9.77107 37.6978 9.81767C37.6675 9.84863 37.6158 9.92364 37.5716 9.93673C37.5274 9.94983 37.4895 9.89744 37.4769 9.85458C37.4228 9.6741 37.4362 9.48158 37.5148 9.30929C37.5704 9.2253 37.603 9.12954 37.6095 9.03069C37.5994 8.93425 37.4592 8.85686 37.3923 8.91163C37.3254 8.9664 37.3127 9.10927 37.2294 9.08188C37.3241 8.80328 37.2016 8.45325 36.9175 8.34371C36.7657 8.30052 36.6077 8.27963 36.4491 8.2818C36.3734 8.26735 36.2965 8.25938 36.2193 8.25799L36.213 8.25323Z" fill="#DD8049"/>
<path d="M36.5186 9.99149C36.7431 9.95146 36.9626 9.89003 37.1739 9.80814C37.1929 10.4522 36.6373 10.5856 36.6373 10.5856C36.6512 10.4031 36.6474 10.2198 36.6259 10.0379C36.6265 10.0225 36.6206 10.0076 36.6095 9.99625C36.5963 9.99268 36.5823 9.99268 36.5691 9.99625H36.5186V9.99149Z" fill="#DE9F93"/>
<path d="M39.8014 13.6323L40.1171 14.9349C40.1498 15.0432 40.1638 15.1557 40.1587 15.2682C40.136 15.479 39.9832 15.6528 39.8368 15.8123C39.6566 16.0374 39.4303 16.2261 39.1714 16.3671C38.9917 16.442 38.8009 16.4902 38.6057 16.51C38.0898 16.5838 37.5677 16.6113 37.0464 16.5922C37.0051 16.5931 36.9641 16.5854 36.9264 16.5695C36.8888 16.5468 36.8576 16.5157 36.8355 16.4791C36.6531 16.2193 36.4963 15.9443 36.3671 15.6575C36.7848 15.3923 37.2435 15.1895 37.7269 15.0563C37.8244 15.0392 37.9155 14.9981 37.9908 14.9372C38.0399 14.8793 38.0725 14.8104 38.0855 14.7372C38.2913 13.9038 37.8166 12.9751 38.1966 12.1977C38.4125 11.7548 38.8734 11.2797 39.2067 11.8714C39.5211 12.4108 39.6575 13.0394 39.8014 13.6323Z" fill="white"/>
<path d="M36.0046 15.6671C35.9477 15.6267 35.8873 15.5908 35.8241 15.5599C35.792 15.5448 35.7565 15.5377 35.7207 15.5391C35.6849 15.5406 35.6501 15.5506 35.6195 15.5683C35.5918 15.5873 35.5703 15.6183 35.5362 15.629C35.5138 15.6337 35.4905 15.6337 35.468 15.629L35.0463 15.5885C35.013 15.5807 34.9782 15.5803 34.9447 15.5873C34.9112 15.5944 34.8798 15.6086 34.8531 15.629C34.7988 15.6873 34.8317 15.779 34.8683 15.8492C34.9765 16.0563 35.0971 16.2575 35.2294 16.4517C35.2535 16.4914 35.2837 16.5275 35.319 16.5588C35.3676 16.5934 35.4236 16.6174 35.4832 16.6291C35.7005 16.6765 35.9274 16.6674 36.1397 16.6029C36.3506 16.5377 36.5473 16.4373 36.7206 16.3064C36.7454 16.2892 36.7671 16.2683 36.7849 16.2445C36.8024 16.2153 36.8127 16.1827 36.8152 16.1493C36.8355 15.9957 36.7837 15.748 36.5716 15.7588C36.377 15.7911 36.1766 15.7587 36.0046 15.6671Z" fill="#FDB9A9"/>
<path d="M9.40046 26.5099C9.40916 26.4966 9.42194 26.4863 9.43708 26.4801C9.47243 26.4694 9.50526 26.4991 9.52925 26.5253C9.74768 26.7634 10.0747 26.8825 10.3878 26.9897C10.4068 26.9956 10.4308 27.0016 10.4459 26.9897C10.4611 26.9778 10.4611 26.9647 10.4674 26.9528C10.4789 26.938 10.4956 26.9274 10.5144 26.9229C10.5333 26.9183 10.5532 26.92 10.5709 26.9278C10.6053 26.9451 10.6364 26.9676 10.6631 26.9944C10.7893 27.104 10.9699 27.148 11.1088 27.2456C11.1458 27.2671 11.1738 27.2999 11.1883 27.3385C11.1931 27.3598 11.1921 27.3818 11.1855 27.4026C11.1789 27.4234 11.1668 27.4423 11.1505 27.4576C11.116 27.4898 11.072 27.5114 11.0242 27.5195C10.9374 27.5363 10.8482 27.5395 10.7603 27.529C10.3234 27.498 9.88825 27.4544 9.45475 27.398C9.42092 27.3958 9.38789 27.3873 9.35753 27.373C9.32412 27.3476 9.29813 27.3146 9.282 27.2771C9.26587 27.2396 9.26015 27.1989 9.26536 27.1587C9.27022 27.0524 9.2833 26.9466 9.3045 26.842C9.30183 26.7249 9.33516 26.6095 9.40046 26.5099Z" fill="#262836"/>
<path d="M8.1656 27.2492C8.21569 27.2767 8.27105 27.2945 8.32848 27.3016C8.42764 27.3248 8.53079 27.3284 8.63151 27.3123C8.68163 27.3035 8.72802 27.2813 8.76518 27.2484C8.80233 27.2155 8.82868 27.1732 8.84111 27.1266C8.84111 27.098 8.86384 27.0575 8.89035 27.0706C8.89626 27.0746 8.90103 27.0799 8.90424 27.0861C8.97398 27.2136 9.01117 27.3546 9.01283 27.498C9.02697 27.5746 9.02002 27.6533 8.99262 27.7266C8.97047 27.767 8.93881 27.802 8.90007 27.8291C8.86134 27.8561 8.81655 27.8744 8.76914 27.8826C8.67527 27.8993 8.57892 27.8993 8.48505 27.8826C8.40424 27.8707 8.32469 27.8564 8.24641 27.8374C8.21146 27.8327 8.17839 27.8196 8.15045 27.7993C8.12686 27.778 8.10873 27.7519 8.09742 27.7231C8.03296 27.5814 8.00902 27.4262 8.02798 27.273C8.03141 27.2405 8.03732 27.2083 8.04565 27.1766C8.04565 27.1623 8.05575 27.0992 8.07722 27.1063C8.09868 27.1135 8.09363 27.1218 8.09363 27.1361C8.09402 27.1511 8.097 27.166 8.10247 27.1802C8.11594 27.2085 8.13788 27.2325 8.1656 27.2492Z" fill="#262836"/>
<path d="M22.0851 6.87451C22.064 6.78546 22.0798 6.69217 22.1293 6.61377C22.1705 6.56858 22.2243 6.53517 22.2846 6.51733C22.3474 6.49493 22.4126 6.47896 22.4791 6.46971C22.5122 6.46693 22.5443 6.45803 22.5738 6.44351C22.5976 6.42445 22.618 6.40194 22.6344 6.37684C22.6834 6.32578 22.7445 6.28634 22.8127 6.26172C22.881 6.2371 22.9544 6.228 23.027 6.23516C23.1723 6.23516 23.3149 6.27564 23.4601 6.28159C23.6053 6.28754 23.7808 6.26254 23.9121 6.33874C24.0126 6.4096 24.0814 6.51315 24.1053 6.62924C24.1563 6.62246 24.2081 6.63393 24.2505 6.66139C24.3301 6.73045 24.2505 6.87094 24.32 6.95309C24.3528 6.99238 24.4109 7.00905 24.4462 7.05072C24.4688 7.09044 24.4756 7.13649 24.4652 7.18049C24.4618 7.22895 24.4547 7.2771 24.4437 7.32455C24.4084 7.45552 24.3175 7.56267 24.2745 7.69483C24.2531 7.76389 24.248 7.83651 24.2303 7.90557C24.1809 8.05853 24.1017 8.20146 23.9967 8.32704C24.0697 8.01396 24.0778 7.69055 24.0207 7.37456C24.0219 7.36 24.0182 7.34545 24.0103 7.33289C24.0024 7.32033 23.9906 7.31036 23.9765 7.30431C23.9564 7.29981 23.9351 7.30279 23.9172 7.31265C23.5811 7.43789 23.2098 7.45175 22.8642 7.35194C22.7659 7.31073 22.658 7.29432 22.551 7.30431C22.508 7.31644 22.4658 7.33115 22.4248 7.34837C22.3817 7.36384 22.334 7.36384 22.2909 7.34837C22.282 7.36585 22.2773 7.38494 22.277 7.40432C22.195 7.38647 22.2 7.27455 22.1773 7.21264C22.1352 7.10295 22.1044 6.98973 22.0851 6.87451Z" fill="#2F3554"/>
<path d="M24.2658 8.00915C24.2744 8.02133 24.28 8.03516 24.2822 8.04963C24.2996 8.13142 24.2838 8.21639 24.238 8.28775C24.1935 8.35999 24.1271 8.41804 24.0473 8.45444C24.0267 8.46574 24.0037 8.47266 23.9799 8.47471C23.9562 8.47677 23.9322 8.47391 23.9097 8.46634C23.8878 8.45218 23.8696 8.43341 23.8567 8.41151C23.8438 8.38961 23.8364 8.36518 23.8352 8.34014C23.8232 8.28939 23.8231 8.23679 23.8349 8.18599C23.8466 8.1352 23.87 8.08744 23.9034 8.04606C23.9321 8.0188 23.9664 7.99736 24.0041 7.98302C24.0419 7.96869 24.0824 7.96178 24.1231 7.96272C24.149 7.96021 24.1752 7.96307 24.1999 7.97109C24.2245 7.97911 24.247 7.9921 24.2658 8.00915Z" fill="#FDB9A9"/>
<path d="M23.0106 9.14022C23.017 9.18903 22.9766 9.2319 22.9715 9.28071C22.9665 9.32952 22.9715 9.38786 22.9715 9.44144C22.9689 9.5091 22.9452 9.57454 22.9033 9.62955C22.8531 9.67731 22.7897 9.71073 22.7202 9.72599C22.5781 9.77613 22.4276 9.80194 22.2758 9.80219C22.213 9.79884 22.1506 9.79128 22.0889 9.77957C21.9892 9.76409 21.7303 9.77243 21.7101 9.64384C21.7163 9.57332 21.7369 9.50458 21.7707 9.44144C21.7821 9.40691 21.7922 9.37239 21.8023 9.33786C21.8124 9.30333 21.8263 9.25214 21.8364 9.20927C21.8844 9.00449 21.9172 8.7759 22.0889 8.6366C22.1319 8.59969 22.2038 8.57349 22.243 8.61397C22.2821 8.65446 22.2682 8.7128 22.3137 8.72351C22.3296 8.72475 22.3457 8.72229 22.3604 8.71637C22.5293 8.64399 22.7144 8.6117 22.8995 8.62231C22.9343 8.62406 22.968 8.63402 22.9975 8.6513C23.0271 8.66857 23.0516 8.69258 23.0687 8.72113C23.118 8.84019 22.9564 8.95925 22.9955 9.07831C23.0031 9.09832 23.0082 9.1191 23.0106 9.14022Z" fill="#FDB9A9"/>
<path d="M22.6369 13.7169C22.6031 13.6848 22.5659 13.656 22.5258 13.6311C22.5511 14.0729 22.6281 14.5348 22.9147 14.8848C22.9894 14.965 23.0589 15.0493 23.123 15.1373C23.2493 15.3373 23.2594 15.5968 23.421 15.773C23.563 15.9014 23.744 15.9847 23.9387 16.0112C24.1084 16.0669 24.2943 16.0601 24.4589 15.9921C24.5898 15.8995 24.6866 15.7704 24.7354 15.623C24.8453 15.3766 25.0473 15.0206 24.8806 14.7539C24.7619 14.5646 24.3882 14.4146 24.1609 14.4146C23.8489 14.3397 23.5439 14.2406 23.2493 14.1181C23.1019 14.0704 22.9638 14.0004 22.8402 13.9109C22.767 13.8526 22.7064 13.78 22.6369 13.7169Z" fill="white"/>
<path opacity="0.1" d="M15.9422 15.5409C15.854 15.8105 15.8159 16.0924 15.8299 16.3743C15.8303 16.4171 15.8257 16.4598 15.816 16.5017C15.7996 16.4707 15.7819 16.4552 15.7642 16.46C15.3147 16.5791 14.3501 16.8172 13.893 16.8934C13.8269 16.9084 13.7584 16.9117 13.691 16.9029C13.6216 16.8862 13.5569 16.8553 13.5016 16.8124C12.9359 16.4207 12.6177 15.8373 12.417 15.223C12.4311 15.1166 12.4561 15.0117 12.4915 14.9099C12.7604 15.0468 12.9006 15.3278 13.0685 15.5694C13.2303 15.8044 13.4296 16.0145 13.6594 16.1921C13.7051 16.232 13.7593 16.262 13.8185 16.2802C13.8885 16.293 13.9607 16.2901 14.0294 16.2719C14.7162 16.1493 15.4435 16.0016 15.9422 15.5409Z" fill="#020202"/>
<path opacity="0.1" d="M25.8668 17.1196C25.4714 17.4816 25.0536 17.8211 24.6155 18.1364C24.3037 18.3638 23.9703 18.5876 23.5814 18.659C23.4267 18.6936 23.2645 18.6841 23.1155 18.6317C22.9921 18.5721 22.8817 18.4913 22.7897 18.3935C22.6774 18.2888 21.3894 16.891 21.368 16.891C21.2952 16.9279 21.2392 16.9884 21.2101 17.0613C21.0235 17.424 20.9084 17.8157 20.8705 18.2173C20.8553 18.3972 20.8553 18.578 20.8705 18.7579C20.921 19.3686 21.1483 19.9985 20.9235 20.5747C20.8797 20.6972 20.8057 20.8082 20.7076 20.8986C20.6122 20.9748 20.5032 21.0345 20.3856 21.0748C20.1318 21.1698 19.8726 21.2513 19.6091 21.3188C19.4814 21.3549 19.3466 21.3626 19.2151 21.3415C19.1394 21.3272 18.9487 21.1998 18.8957 21.2057C19.0884 21.1795 19.2696 21.1031 19.4189 20.9851C19.5681 20.8671 19.6794 20.7122 19.7404 20.5378C19.8301 20.2628 19.7859 19.9675 19.7871 19.6794C19.7982 19.3451 19.8404 19.0125 19.9134 18.6852L20.1836 17.291C20.2745 16.8148 20.4589 16.1385 20.9841 15.9242C21.0889 15.8814 21.2038 15.9516 21.2947 16.0183C21.9033 16.4683 22.5233 16.9291 22.9602 17.5327C23.0865 17.7006 23.2014 17.8899 23.4009 17.9661C23.6004 18.0423 23.8617 17.9744 24.0776 17.8923C24.3997 17.7697 24.7131 17.6277 25.0158 17.4673C25.2431 17.3482 25.5436 17.0779 25.8264 17.1101C25.8402 17.112 25.8537 17.1152 25.8668 17.1196Z" fill="#020202"/>
</g>
<defs>
<linearGradient id="paint0_linear_2212_690" x1="17.9158" y1="24.8216" x2="17.9158" y2="35.4143" gradientUnits="userSpaceOnUse">
<stop offset="0.01"/>
<stop offset="0.08" stop-opacity="0.69"/>
<stop offset="0.21" stop-opacity="0.32"/>
<stop offset="1" stop-opacity="0"/>
</linearGradient>
<linearGradient id="paint1_linear_2212_690" x1="35.7939" y1="24.1239" x2="36.87" y2="33.3914" gradientUnits="userSpaceOnUse">
<stop offset="0.01"/>
<stop offset="0.08" stop-opacity="0.69"/>
<stop offset="0.21" stop-opacity="0.32"/>
<stop offset="1" stop-opacity="0"/>
</linearGradient>
<linearGradient id="paint2_linear_2212_690" x1="6.52539" y1="22.975" x2="7.60155" y2="32.2424" gradientUnits="userSpaceOnUse">
<stop offset="0.01"/>
<stop offset="0.08" stop-opacity="0.69"/>
<stop offset="0.21" stop-opacity="0.32"/>
<stop offset="1" stop-opacity="0"/>
</linearGradient>
<linearGradient id="paint3_linear_2212_690" x1="21.7821" y1="16.2779" x2="20.3712" y2="36.4814" gradientUnits="userSpaceOnUse">
<stop offset="0.01"/>
<stop offset="0.08" stop-opacity="0.69"/>
<stop offset="0.21" stop-opacity="0.32"/>
<stop offset="1" stop-opacity="0"/>
</linearGradient>
<linearGradient id="paint4_linear_2212_690" x1="5.21103" y1="19.227" x2="11.6766" y2="18.7372" gradientUnits="userSpaceOnUse">
<stop offset="0.01"/>
<stop offset="0.08" stop-opacity="0.69"/>
<stop offset="0.21" stop-opacity="0.32"/>
<stop offset="1" stop-opacity="0"/>
</linearGradient>
<linearGradient id="paint5_linear_2212_690" x1="13.8262" y1="19.2877" x2="24.9917" y2="35.866" gradientUnits="userSpaceOnUse">
<stop offset="0.01"/>
<stop offset="0.08" stop-opacity="0.69"/>
<stop offset="0.21" stop-opacity="0.32"/>
<stop offset="1" stop-opacity="0"/>
</linearGradient>
<clipPath id="clip0_2212_690">
<rect width="50" height="35" fill="white"/>
</clipPath>
</defs>
</svg>
