<svg width="16" height="16" viewBox="0 0 16 16" fill="none" xmlns="http://www.w3.org/2000/svg">
<g clipPath="url(#clip0_187_2159)">
<path d="M12.9425 3.05625C11.6729 1.7875 9.93058 1 7.99562 1C4.1257 1 1 4.1325 1 8C1 11.8675 4.1257 15 7.99562 15C11.2614 15 13.9844 12.7688 14.7636 9.75H12.9425C12.2245 11.7887 10.2808 13.25 7.99562 13.25C5.09756 13.25 2.74234 10.8962 2.74234 8C2.74234 5.10375 5.09756 2.75 7.99562 2.75C9.44903 2.75 10.7448 3.35375 11.6904 4.3075L8.87117 7.125H15V1L12.9425 3.05625Z" fill="#779CFF"/>
</g>
<defs>
<clipPath id="clip0_187_2159">
<rect width="16" height="16" fill="white"/>
</clipPath>
</defs>
</svg>
