<svg width="24" height="24" viewBox="0 0 24 24" fill="none" xmlns="http://www.w3.org/2000/svg">
<path d="M13.5851 11.999L20.6675 4.92716C20.8792 4.71545 20.9981 4.42831 20.9981 4.12891C20.9981 3.8295 20.8792 3.54236 20.6675 3.33065C20.4558 3.11894 20.1687 3 19.8693 3C19.5699 3 19.2828 3.11894 19.0711 3.33065L12 10.4138L4.92888 3.33065C4.71719 3.11894 4.43008 3 4.1307 3C3.83133 3 3.54422 3.11894 3.33253 3.33065C3.12084 3.54236 3.00192 3.8295 3.00192 4.12891C3.00192 4.42831 3.12084 4.71545 3.33253 4.92716L10.4149 11.999L3.33253 19.0709C3.22716 19.1754 3.14353 19.2998 3.08646 19.4368C3.02938 19.5738 3 19.7208 3 19.8692C3 20.0176 3.02938 20.1645 3.08646 20.3016C3.14353 20.4386 3.22716 20.5629 3.33253 20.6674C3.43704 20.7728 3.56138 20.8565 3.69837 20.9135C3.83536 20.9706 3.9823 21 4.1307 21C4.27911 21 4.42605 20.9706 4.56304 20.9135C4.70003 20.8565 4.82437 20.7728 4.92888 20.6674L12 13.5843L19.0711 20.6674C19.1756 20.7728 19.3 20.8565 19.437 20.9135C19.574 20.9706 19.7209 21 19.8693 21C20.0177 21 20.1646 20.9706 20.3016 20.9135C20.4386 20.8565 20.563 20.7728 20.6675 20.6674C20.7728 20.5629 20.8565 20.4386 20.9135 20.3016C20.9706 20.1645 21 20.0176 21 19.8692C21 19.7208 20.9706 19.5738 20.9135 19.4368C20.8565 19.2998 20.7728 19.1754 20.6675 19.0709L13.5851 11.999Z" fill="#779CFF"/>
</svg>
