<svg width="15" height="15" viewBox="0 0 15 15" fill="none" xmlns="http://www.w3.org/2000/svg">
<path d="M7.86228 0.773493C7.71844 0.466354 7.28163 0.466352 7.13779 0.773489L5.27993 4.74048C5.22334 4.86132 5.11021 4.94598 4.97831 4.96621L0.769449 5.61159C0.447638 5.66094 0.316436 6.05356 0.543924 6.28646L3.60879 9.42436C3.69763 9.51532 3.73793 9.64309 3.71737 9.76856L2.99328 14.1861C2.93924 14.5158 3.28925 14.7625 3.5816 14.6008L7.30641 12.5408C7.42687 12.4741 7.57313 12.4741 7.69359 12.5408L11.4184 14.6008C11.7108 14.7625 12.0608 14.5158 12.0067 14.1861L11.2826 9.76856C11.2621 9.64309 11.3024 9.51532 11.3912 9.42436L14.4561 6.28646C14.6836 6.05356 14.5524 5.66094 14.2306 5.61159L10.0217 4.96621C9.88979 4.94598 9.77667 4.86132 9.72007 4.74048L7.86228 0.773493Z" fill="#FF8F00"/>
</svg>
