<svg width="20" height="16" viewBox="0 0 20 16" fill="none" xmlns="http://www.w3.org/2000/svg">
<path d="M7.61857 4.2606C7.61857 4.74725 7.73714 5.17269 8.00429 5.53846H5.95143C5.85474 5.14977 5.80716 4.74831 5.81 4.34537C5.81 1.79121 7.86143 0 10.7814 0C13.5943 0 15.6243 1.84458 15.7029 4.4741H13.9457C13.7886 2.77865 12.5686 1.73783 10.7314 1.73783C8.97429 1.73783 7.61714 2.68289 7.61714 4.2606H7.61857ZM10.7529 16C7.67714 16 5.62571 14.2622 5.46 11.5887H7.21714C7.42286 13.2527 8.83 14.2622 10.8514 14.2622C12.7657 14.2622 14.1514 13.1554 14.1514 11.6327C14.1514 10.3344 13.37 9.47567 11.4171 9.00314L10.0657 8.67818H0V7.10832H20V8.67818H14.9943C15.6629 9.36421 15.9586 10.2386 15.9586 11.3422C15.9586 14.2088 13.9071 16 10.7529 16Z" fill="black"/>
</svg>
