<svg width="24" height="24" viewBox="0 0 24 24" fill="none" xmlns="http://www.w3.org/2000/svg">
<path d="M16.114 9.29103C16.666 8.73903 17.214 7.45103 14.914 9.01503C11.646 11.27 8.42501 13.387 8.42501 13.387C8.09345 13.537 7.735 13.6183 7.37121 13.6262C7.00741 13.6341 6.64577 13.5684 6.30801 13.433C4.92801 13.019 3.31701 12.467 3.31701 12.467C3.31701 12.467 2.21701 11.776 4.10001 11.04C4.10001 11.04 12.061 7.77303 14.822 6.62203C15.88 6.16203 19.469 4.69003 19.469 4.69003C19.469 4.69003 21.126 4.04503 20.988 5.61003C20.942 6.25403 20.574 8.51003 20.206 10.948C19.653 14.399 19.055 18.173 19.055 18.173C19.055 18.173 18.963 19.231 18.181 19.415C17.3439 19.4009 16.5351 19.1097 15.881 18.587C15.697 18.449 12.43 16.378 11.233 15.366C11.1112 15.2835 11.0123 15.1716 10.9454 15.0406C10.8786 14.9096 10.8459 14.7639 10.8505 14.6169C10.8551 14.4699 10.8968 14.3264 10.9717 14.1999C11.0466 14.0733 11.1523 13.9678 11.279 13.893C12.939 12.375 14.918 10.488 16.114 9.29103Z" fill="white"/>
</svg>
