<svg xmlns="http://www.w3.org/2000/svg" version="1.1" xmlns:xlink="http://www.w3.org/1999/xlink" width="512" height="512" x="0" y="0" viewBox="0 0 682.667 682.667" style="enable-background:new 0 0 512 512" xml:space="preserve" class=""><g><defs><clipPath id="a" clipPathUnits="userSpaceOnUse"><path d="M0 512h512V0H0Z" fill="#000000" opacity="1" data-original="#000000" class=""></path></clipPath></defs><g clip-path="url(#a)" transform="matrix(1.33333 0 0 -1.33333 0 682.667)"><path d="M0 0c-13.807 0-25 11.192-25 25v127.594l-46.476-36.99c-10.803-8.599-26.531-6.811-35.129 3.992-8.599 10.802-6.811 26.531 3.992 35.129l87.045 69.279A25 25 0 0 0 25 204.443V25C25 11.192 13.807 0 0 0" style="fill-opacity:1;fill-rule:nonzero;stroke:none" transform="translate(270.703 132.34)" fill="#ffeb00" data-original="#f4e74d" class="" opacity="1"></path><path d="M0 0c13.807 0 25 11.192 25 25v49.208c-34.964 3.264-50 14.663-50 14.663V25C-25 11.192-13.807 0 0 0" style="fill-opacity:1;fill-rule:nonzero;stroke:none" transform="translate(270.703 132.34)" fill="#ffeb04" data-original="#eedb00" class="" opacity="1"></path><path d="M0 0h-181.041v38.009c0 18.198 14.754 32.952 32.953 32.952h115.137C-14.753 70.961 0 56.207 0 38.009Z" style="fill-opacity:1;fill-rule:nonzero;stroke:none" transform="translate(358.331 104.273)" fill="#ffe800" data-original="#f9ee80" class="" opacity="1"></path><path d="M0 0h-57.984c-18.199 0-32.952-14.754-32.952-32.952v-38.009h57.984v38.009C-32.952-14.754-18.199 0 0 0" style="fill-opacity:1;fill-rule:nonzero;stroke:none" transform="translate(268.227 175.234)" fill="#ffeb00" data-original="#f4e74d" class="" opacity="1"></path><path d="M0 0h-191.046c-15.45 0-27.974 12.525-27.974 27.975v21.412c0 15.449 12.524 27.974 27.974 27.974H0c15.449 0 27.974-12.525 27.974-27.974V27.975C27.974 12.525 15.449 0 0 0" style="fill-opacity:1;fill-rule:nonzero;stroke:none" transform="translate(363.334 45.628)" fill="#f8ec71" data-original="#fcf5af" class="" opacity="1"></path><path d="M0 0v21.412c0 15.449 12.524 27.974 27.974 27.974h-62.987c-15.449 0-27.974-12.525-27.974-27.974V0c0-15.45 12.525-27.975 27.974-27.975h62.987C12.524-27.975 0-15.45 0 0" style="fill-opacity:1;fill-rule:nonzero;stroke:none" transform="translate(207.3 73.603)" fill="#ffe800" data-original="#f9ee80" class="" opacity="1"></path><path d="M0 0c-13.885-11.587-32-12.76-40.461-2.621-8.46 10.14-4.063 27.752 9.822 39.338 13.886 11.587 32.001 12.76 40.461 2.621C18.283 29.198 13.885 11.586 0 0" style="fill-opacity:1;fill-rule:nonzero;stroke:none" transform="translate(99.434 265.577)" fill="#29ce69" data-original="#29ce69" class=""></path><path d="M0 0c11.586-13.886 29.199-18.283 39.338-9.822 10.139 8.461 8.966 26.576-2.621 40.461C25.131 44.524 7.519 48.922-2.621 40.461-12.76 32-11.586 13.885 0 0" style="fill-opacity:1;fill-rule:nonzero;stroke:none" transform="translate(17.02 273.014)" fill="#29ce69" data-original="#29ce69" class=""></path><path d="M0 0c-8.304-16.065-24.546-24.173-36.277-18.109-11.731 6.064-14.509 24.003-6.205 40.068 8.304 16.065 24.546 24.173 36.277 18.108C5.526 34.004 8.304 16.064 0 0" style="fill-opacity:1;fill-rule:nonzero;stroke:none" transform="translate(115.807 206.49)" fill="#29ce69" data-original="#29ce69" class=""></path><path d="M0 0c16.065-8.304 34.004-5.526 40.068 6.205 6.064 11.732-2.044 27.973-18.109 36.277-16.065 8.304-34.004 5.526-40.068-6.205S-16.065 8.304 0 0" style="fill-opacity:1;fill-rule:nonzero;stroke:none" transform="translate(36.96 181.378)" fill="#29ce69" data-original="#29ce69" class=""></path><path d="M0 0c-7.654-16.386-23.558-25.137-35.522-19.548-11.965 5.589-15.459 23.402-7.806 39.787 7.654 16.385 23.558 25.137 35.523 19.548C4.159 34.198 7.654 16.385 0 0" style="fill-opacity:1;fill-rule:nonzero;stroke:none" transform="translate(104.084 344.212)" fill="#29ce69" data-original="#29ce69" class=""></path><path d="M0 0c13.886-11.587 32.001-12.76 40.461-2.621 8.461 10.14 4.063 27.752-9.822 39.338-13.885 11.587-32 12.76-40.46 2.621C-18.282 29.198-13.885 11.586 0 0" style="fill-opacity:1;fill-rule:nonzero;stroke:none" transform="translate(412.565 265.577)" fill="#29ce69" data-original="#29ce69" class=""></path><path d="M0 0c-11.586-13.886-29.198-18.283-39.338-9.822-10.14 8.461-8.966 26.576 2.62 40.461C-25.131 44.524-7.519 48.922 2.62 40.461 12.76 32 11.587 13.885 0 0" style="fill-opacity:1;fill-rule:nonzero;stroke:none" transform="translate(494.98 273.014)" fill="#29ce69" data-original="#29ce69" class=""></path><path d="M0 0c8.304-16.065 24.546-24.173 36.276-18.109 11.732 6.064 14.51 24.003 6.205 40.068-8.303 16.065-24.545 24.173-36.276 18.108C-5.526 34.004-8.305 16.064 0 0" style="fill-opacity:1;fill-rule:nonzero;stroke:none" transform="translate(396.193 206.49)" fill="#29ce69" data-original="#29ce69" class=""></path><path d="M0 0c-16.065-8.304-34.005-5.526-40.068 6.205-6.064 11.732 2.044 27.973 18.109 36.277 16.064 8.304 34.004 5.526 40.067-6.205C24.173 24.546 16.064 8.304 0 0" style="fill-opacity:1;fill-rule:nonzero;stroke:none" transform="translate(475.041 181.378)" fill="#29ce69" data-original="#29ce69" class=""></path><path d="M0 0c7.653-16.386 23.558-25.137 35.522-19.548 11.964 5.589 15.459 23.402 7.805 39.787C35.673 36.624 19.77 45.376 7.805 39.787-4.16 34.198-7.654 16.385 0 0" style="fill-opacity:1;fill-rule:nonzero;stroke:none" transform="translate(407.917 344.212)" fill="#29ce69" data-original="#29ce69" class=""></path><path d="m0 0 4.036-7.38a43.88 43.88 0 0 1 17.441-17.44l7.379-4.037c7.553-4.13 7.553-14.978 0-19.109l-7.379-4.036A43.875 43.875 0 0 1 4.036-69.443L0-76.823c-4.131-7.553-14.979-7.553-19.109 0l-4.037 7.38a43.869 43.869 0 0 1-17.441 17.441l-7.38 4.036c-7.553 4.131-7.553 14.979 0 19.109l7.38 4.037A43.873 43.873 0 0 1-23.146-7.38L-19.109 0C-14.979 7.553-4.131 7.553 0 0" style="fill-opacity:1;fill-rule:nonzero;stroke:none" transform="translate(340.353 460.707)" fill="#c2eafb" data-original="#c2eafb" class=""></path><path d="m0 0 2.91-5.318a31.615 31.615 0 0 1 12.569-12.571l5.319-2.909c5.444-2.976 5.444-10.795 0-13.772l-5.319-2.909A31.612 31.612 0 0 1 2.91-50.049L0-55.368c-2.977-5.444-10.795-5.444-13.772 0l-2.909 5.319a31.62 31.62 0 0 1-12.57 12.57l-5.319 2.909c-5.444 2.977-5.444 10.796 0 13.772l5.319 2.909a31.623 31.623 0 0 1 12.57 12.571L-13.772 0C-10.795 5.443-2.977 5.443 0 0" style="fill-opacity:1;fill-rule:nonzero;stroke:none" transform="translate(188.992 202.917)" fill="#c2eafb" data-original="#c2eafb" class=""></path><path d="M0 0h27.62c15.449 0 27.974-12.525 27.974-27.975v-21.412c0-15.449-12.525-27.974-27.974-27.974h-191.046c-15.449 0-27.974 12.525-27.974 27.974v21.412C-191.4-12.525-178.875 0-163.426 0h130.595" style="stroke-width:15;stroke-linecap:round;stroke-linejoin:round;stroke-miterlimit:10;stroke-dasharray:none;stroke-opacity:1" transform="translate(335.714 122.99)" fill="none" stroke="#000000" stroke-width="15" stroke-linecap="round" stroke-linejoin="round" stroke-miterlimit="10" stroke-dasharray="none" stroke-opacity="" data-original="#000000" class=""></path><path d="M0 0c7.653-16.386 23.558-25.137 35.522-19.548 11.964 5.589 15.459 23.402 7.805 39.787C35.673 36.624 19.77 45.376 7.805 39.787-4.16 34.198-7.654 16.385 0 0Z" style="stroke-width:15;stroke-linecap:butt;stroke-linejoin:round;stroke-miterlimit:10;stroke-dasharray:none;stroke-opacity:1" transform="translate(407.917 344.212)" fill="none" stroke="#000000" stroke-width="15" stroke-linecap="butt" stroke-linejoin="round" stroke-miterlimit="10" stroke-dasharray="none" stroke-opacity="" data-original="#000000" class=""></path><path d="m0 0 4.036-7.38a43.88 43.88 0 0 1 17.441-17.44l7.379-4.037c7.553-4.13 7.553-14.978 0-19.109l-7.379-4.036A43.875 43.875 0 0 1 4.036-69.443L0-76.823c-4.131-7.553-14.979-7.553-19.109 0l-4.037 7.38a43.869 43.869 0 0 1-17.441 17.441l-7.38 4.036c-7.553 4.131-7.553 14.979 0 19.109l7.38 4.037A43.873 43.873 0 0 1-23.146-7.38L-19.109 0C-14.979 7.553-4.131 7.553 0 0Z" style="stroke-width:15;stroke-linecap:butt;stroke-linejoin:round;stroke-miterlimit:10;stroke-dasharray:none;stroke-opacity:1" transform="translate(340.353 460.707)" fill="none" stroke="#000000" stroke-width="15" stroke-linecap="butt" stroke-linejoin="round" stroke-miterlimit="10" stroke-dasharray="none" stroke-opacity="" data-original="#000000" class=""></path><path d="m0 0 2.91-5.318a31.615 31.615 0 0 1 12.569-12.571l5.319-2.909c5.444-2.976 5.444-10.795 0-13.772l-5.319-2.909A31.612 31.612 0 0 1 2.91-50.049L0-55.368c-2.977-5.444-10.795-5.444-13.772 0l-2.909 5.319a31.62 31.62 0 0 1-12.57 12.57l-5.319 2.909c-5.444 2.977-5.444 10.796 0 13.772l5.319 2.909a31.623 31.623 0 0 1 12.57 12.571L-13.772 0C-10.795 5.443-2.977 5.443 0 0Z" style="stroke-width:15;stroke-linecap:butt;stroke-linejoin:round;stroke-miterlimit:10;stroke-dasharray:none;stroke-opacity:1" transform="translate(188.992 202.917)" fill="none" stroke="#000000" stroke-width="15" stroke-linecap="butt" stroke-linejoin="round" stroke-miterlimit="10" stroke-dasharray="none" stroke-opacity="" data-original="#000000" class=""></path><path d="M0 0c-16.013 17.847-27.773 38.608-35 61.813-10.326 33.156-10.189 67.781.328 100.566a17.927 17.927 0 0 0-5.756 1.583c-3.028 1.414-5.51 3.613-7.41 6.372-12.565-36.73-13.091-75.709-1.484-112.981 7.865-25.254 20.663-47.857 38.091-67.297 2.86-3.191 7.792-3.385 10.858-.392C2.49-7.542 2.671-2.978 0 0" style="fill-opacity:1;fill-rule:nonzero;stroke:none" transform="translate(108.989 160.702)" fill="#000000" data-original="#000000" class=""></path><path d="M0 0c3.614.48 7.183.025 10.457-1.504 11.964-5.589 15.459-23.402 7.805-39.787-7.655-16.386-23.558-25.137-35.523-19.548-11.965 5.589-15.459 23.402-7.805 39.787" style="stroke-width:15;stroke-linecap:round;stroke-linejoin:round;stroke-miterlimit:10;stroke-dasharray:none;stroke-opacity:1" transform="translate(85.822 385.503)" fill="none" stroke="#000000" stroke-width="15" stroke-linecap="round" stroke-linejoin="round" stroke-miterlimit="10" stroke-dasharray="none" stroke-opacity="" data-original="#000000" class=""></path><path d="M0 0c2.233 3.439 5.111 6.712 8.583 9.608 13.885 11.587 32 12.76 40.46 2.621 8.461-10.139 4.063-27.751-9.822-39.337-13.885-11.587-32-12.76-40.461-2.621" style="stroke-width:15;stroke-linecap:butt;stroke-linejoin:round;stroke-miterlimit:10;stroke-dasharray:none;stroke-opacity:1" transform="translate(60.213 292.685)" fill="none" stroke="#000000" stroke-width="15" stroke-linecap="butt" stroke-linejoin="round" stroke-miterlimit="10" stroke-dasharray="none" stroke-opacity="" data-original="#000000" class=""></path><path d="M0 0c-1.581 3.783-3.827 7.519-6.724 10.99-11.586 13.886-29.198 18.283-39.338 9.822-10.139-8.46-8.965-26.576 2.621-40.46 11.587-13.886 29.199-18.284 39.338-9.823" style="stroke-width:15;stroke-linecap:butt;stroke-linejoin:round;stroke-miterlimit:10;stroke-dasharray:none;stroke-opacity:1" transform="translate(60.46 292.663)" fill="none" stroke="#000000" stroke-width="15" stroke-linecap="butt" stroke-linejoin="round" stroke-miterlimit="10" stroke-dasharray="none" stroke-opacity="" data-original="#000000" class=""></path><path d="M0 0c.724 4.036 2.107 8.169 4.184 12.186 8.304 16.065 24.545 24.172 36.276 18.108C52.191 24.23 54.97 6.291 46.666-9.773c-8.305-16.066-24.546-24.173-36.277-18.11" style="stroke-width:15;stroke-linecap:butt;stroke-linejoin:round;stroke-miterlimit:10;stroke-dasharray:none;stroke-opacity:1" transform="translate(69.142 216.263)" fill="none" stroke="#000000" stroke-width="15" stroke-linecap="butt" stroke-linejoin="round" stroke-miterlimit="10" stroke-dasharray="none" stroke-opacity="" data-original="#000000" class=""></path><path d="M0 0c-2.924 2.874-6.443 5.446-10.459 7.522-16.066 8.304-34.005 5.526-40.069-6.205-6.063-11.731 2.044-27.973 18.11-36.277 16.064-8.304 34.003-5.526 40.067 6.205" style="stroke-width:15;stroke-linecap:butt;stroke-linejoin:round;stroke-miterlimit:10;stroke-dasharray:none;stroke-opacity:1" transform="translate(69.378 216.338)" fill="none" stroke="#000000" stroke-width="15" stroke-linecap="butt" stroke-linejoin="round" stroke-miterlimit="10" stroke-dasharray="none" stroke-opacity="" data-original="#000000" class=""></path><path d="M0 0c-2.232 3.439-5.111 6.712-8.583 9.608-13.885 11.587-32 12.76-40.46 2.621-8.461-10.139-4.063-27.751 9.821-39.337 13.886-11.587 32.001-12.76 40.461-2.621" style="stroke-width:15;stroke-linecap:butt;stroke-linejoin:round;stroke-miterlimit:10;stroke-dasharray:none;stroke-opacity:1" transform="translate(451.787 292.685)" fill="none" stroke="#000000" stroke-width="15" stroke-linecap="butt" stroke-linejoin="round" stroke-miterlimit="10" stroke-dasharray="none" stroke-opacity="" data-original="#000000" class=""></path><path d="M0 0c1.58 3.783 3.826 7.519 6.723 10.99 11.587 13.886 29.199 18.283 39.338 9.822 10.139-8.46 8.966-26.576-2.621-40.46-11.586-13.886-29.198-18.284-39.337-9.823" style="stroke-width:15;stroke-linecap:butt;stroke-linejoin:round;stroke-miterlimit:10;stroke-dasharray:none;stroke-opacity:1" transform="translate(451.54 292.663)" fill="none" stroke="#000000" stroke-width="15" stroke-linecap="butt" stroke-linejoin="round" stroke-miterlimit="10" stroke-dasharray="none" stroke-opacity="" data-original="#000000" class=""></path><path d="M0 0c-.724 4.036-2.107 8.169-4.184 12.186-8.303 16.065-24.545 24.172-36.276 18.108-11.731-6.064-14.51-24.003-6.205-40.067 8.304-16.066 24.546-24.173 36.276-18.11" style="stroke-width:15;stroke-linecap:butt;stroke-linejoin:round;stroke-miterlimit:10;stroke-dasharray:none;stroke-opacity:1" transform="translate(442.858 216.263)" fill="none" stroke="#000000" stroke-width="15" stroke-linecap="butt" stroke-linejoin="round" stroke-miterlimit="10" stroke-dasharray="none" stroke-opacity="" data-original="#000000" class=""></path><path d="M0 0c2.925 2.874 6.443 5.446 10.46 7.522 16.064 8.304 34.004 5.526 40.067-6.205 6.065-11.731-2.044-27.973-18.108-36.277-16.065-8.304-34.005-5.526-40.068 6.205" style="stroke-width:15;stroke-linecap:butt;stroke-linejoin:round;stroke-miterlimit:10;stroke-dasharray:none;stroke-opacity:1" transform="translate(442.622 216.338)" fill="none" stroke="#000000" stroke-width="15" stroke-linecap="butt" stroke-linejoin="round" stroke-miterlimit="10" stroke-dasharray="none" stroke-opacity="" data-original="#000000" class=""></path><path d="M0 0c-1.9-2.759-4.383-4.958-7.41-6.372a17.934 17.934 0 0 0-5.756-1.583c10.518-32.785 10.653-67.41.328-100.566-7.226-23.205-18.987-43.966-35-61.813-2.672-2.978-2.49-7.542.373-10.336 3.067-2.993 7.997-2.799 10.858.392 17.427 19.44 30.226 42.043 38.09 67.297C13.091-75.709 12.564-36.729 0 0" style="fill-opacity:1;fill-rule:nonzero;stroke:none" transform="translate(450.85 331.036)" fill="#000000" data-original="#000000" class=""></path><path d="M0 0v19.292" style="stroke-width:15;stroke-linecap:butt;stroke-linejoin:round;stroke-miterlimit:10;stroke-dasharray:none;stroke-opacity:1" transform="translate(177.29 122.99)" fill="none" stroke="#000000" stroke-width="15" stroke-linecap="butt" stroke-linejoin="round" stroke-miterlimit="10" stroke-dasharray="none" stroke-opacity="" data-original="#000000" class=""></path><path d="M0 0h111.507c18.199 0 32.951-14.754 32.951-32.952v-19.292" style="stroke-width:15;stroke-linecap:butt;stroke-linejoin:round;stroke-miterlimit:10;stroke-dasharray:none;stroke-opacity:1" transform="translate(213.873 175.234)" fill="none" stroke="#000000" stroke-width="15" stroke-linecap="butt" stroke-linejoin="round" stroke-miterlimit="10" stroke-dasharray="none" stroke-opacity="" data-original="#000000" class=""></path><path d="M0 0v109.7l-46.476-36.99c-10.803-8.599-26.531-6.811-35.129 3.992-8.599 10.803-6.811 26.531 3.992 35.129L9.432 181.11a24.992 24.992 0 0 0 26.425 2.958A24.999 24.999 0 0 0 50 161.55V0" style="stroke-width:15;stroke-linecap:butt;stroke-linejoin:round;stroke-miterlimit:10;stroke-dasharray:none;stroke-opacity:1" transform="translate(245.703 175.234)" fill="none" stroke="#000000" stroke-width="15" stroke-linecap="butt" stroke-linejoin="round" stroke-miterlimit="10" stroke-dasharray="none" stroke-opacity="" data-original="#000000" class=""></path></g></g></svg>