<svg id="SvgjsSvg1001" width="288" height="288" xmlns="http://www.w3.org/2000/svg" version="1.1" xmlns:xlink="http://www.w3.org/1999/xlink" xmlns:svgjs="http://svgjs.com/svgjs"><defs id="SvgjsDefs1002"></defs><g id="SvgjsG1008"><svg xmlns="http://www.w3.org/2000/svg" viewBox="0 0 60 60" width="288" height="288"><path fill="#f4aa51" d="M19 41s-3-1-5-7H8a3.009 3.009 0 0 1-3-3 2.006 2.006 0 0 1 2-2H6a3.009 3.009 0 0 1-3-3 2.006 2.006 0 0 1 2-2H4a3.009 3.009 0 0 1-3-3 2.006 2.006 0 0 1 2-2h12.96a3.021 3.021 0 0 1 3 2.93A31.063 31.063 0 0 0 22.13 35zm18.87-6a31.063 31.063 0 0 0 3.17-13.07 3.021 3.021 0 0 1 3-2.93H57a2.006 2.006 0 0 1 2 2 3.009 3.009 0 0 1-3 3h-1a2.006 2.006 0 0 1 2 2 3.009 3.009 0 0 1-3 3h-1a2.006 2.006 0 0 1 2 2 3.009 3.009 0 0 1-3 3h-6c-2 6-5 7-5 7z" class="colorf4aa51 svgShape"></path><path fill="#f9c55d" d="M19 42v-6a1 1 0 0 1 1-1h7V10l-3.172 2.379a1 1 0 0 1-1.42-.229l-2.029-2.91a1 1 0 0 1 .188-1.346l8.157-6.668A1 1 0 0 1 29.357 1H32a1 1 0 0 1 1 1v33h7a1 1 0 0 1 1 1v6Z" class="colorf9c55d svgShape"></path><path fill="#416572" d="M11 57V45a4 4 0 0 1 4-4h30a4 4 0 0 1 4 4v12Z" class="color416572 svgShape"></path><rect width="44" height="4" x="8" y="55" fill="#324e56" rx="1" class="color324e56 svgShape"></rect><path fill="#ffffff" d="M36 47H24a1 1 0 0 1 0-2h12a1 1 0 0 1 0 2zm-2 4h-8a1 1 0 0 1 0-2h8a1 1 0 0 1 0 2z" class="colorfff svgShape"></path></svg></g></svg>