<svg id="SvgjsSvg1001" width="288" height="288" xmlns="http://www.w3.org/2000/svg" version="1.1" xmlns:xlink="http://www.w3.org/1999/xlink" xmlns:svgjs="http://svgjs.com/svgjs"><defs id="SvgjsDefs1002"></defs><g id="SvgjsG1008"><svg xmlns="http://www.w3.org/2000/svg" viewBox="0 0 60 60" width="288" height="288"><path fill="#86a9af" d="M37.87 35a24.962 24.962 0 0 0 1.4-3.24 33.408 33.408 0 0 0 1.77-9.83 3.021 3.021 0 0 1 3-2.93H57a2.006 2.006 0 0 1 2 2 3.009 3.009 0 0 1-3 3h-1a2.006 2.006 0 0 1 2 2 3.009 3.009 0 0 1-3 3h-1a2.006 2.006 0 0 1 2 2 3.009 3.009 0 0 1-3 3h-6c-2 6-5 7-5 7l-3 1zM19 41s-3-1-5-7H8a3.009 3.009 0 0 1-3-3 2.006 2.006 0 0 1 2-2H6a3.009 3.009 0 0 1-3-3 2.006 2.006 0 0 1 2-2H4a3.009 3.009 0 0 1-3-3 2.006 2.006 0 0 1 2-2h12.96a3.021 3.021 0 0 1 3 2.93 33.408 33.408 0 0 0 1.77 9.83L22 42z" class="color86a9af svgShape"></path><path fill="#aac7c8" d="M44 36v4a1 1 0 0 1-1 1v1H21v-1a3.008 3.008 0 0 1-2.87-3.88c2.26-7.33 7.82-10.88 12.29-13.73 4.88-3.1 7.62-5.07 7.58-9.49A6.976 6.976 0 0 0 30.99 7a6.877 6.877 0 0 0-6.84 4.28.987.987 0 0 1-1.26.48l-3.72-1.49a1.025 1.025 0 0 1-.53-1.38A12.851 12.851 0 0 1 30.84 1a13.019 13.019 0 0 1 13.15 12.43c.27 8.25-5.38 11.86-10.35 15.02-3 1.92-5.88 3.75-7.87 6.55H43a1 1 0 0 1 1 1Z" class="coloraac7c8 svgShape"></path><path fill="#416572" d="M11 57V45a4 4 0 0 1 4-4h30a4 4 0 0 1 4 4v12Z" class="color416572 svgShape"></path><rect width="44" height="4" x="8" y="55" fill="#324e56" rx="1" class="color324e56 svgShape"></rect><path fill="#ffffff" d="M36 47H24a1 1 0 0 1 0-2h12a1 1 0 0 1 0 2zm-2 4h-8a1 1 0 0 1 0-2h8a1 1 0 0 1 0 2z" class="colorfff svgShape"></path></svg></g></svg>