<svg id="SvgjsSvg1001" width="288" height="288" xmlns="http://www.w3.org/2000/svg" version="1.1" xmlns:xlink="http://www.w3.org/1999/xlink" xmlns:svgjs="http://svgjs.com/svgjs"><defs id="SvgjsDefs1002"></defs><g id="SvgjsG1008"><svg xmlns="http://www.w3.org/2000/svg" viewBox="0 0 60 60" width="288" height="288"><path fill="#c97458" d="M55.178 24H55a1.955 1.955 0 0 1 1.41.59c.8.78.9 2.217-.42 3.4A4.209 4.209 0 0 1 53.178 29H53a1.955 1.955 0 0 1 1.41.59c.8.78.9 2.217-.42 3.4A4.209 4.209 0 0 1 51.178 34H46c-2 6-5 7-5 7l-5 1H24l-5-1s-3-1-5-7H8.822a4.209 4.209 0 0 1-2.812-1.013c-1.319-1.18-1.222-2.617-.42-3.4A1.955 1.955 0 0 1 7 29h-.178a4.209 4.209 0 0 1-2.812-1.013c-1.319-1.18-1.222-2.617-.42-3.4A1.955 1.955 0 0 1 5 24h-.178a4.209 4.209 0 0 1-2.812-1.013c-1.319-1.18-1.222-2.617-.42-3.4A1.955 1.955 0 0 1 3 19h12.96a3.021 3.021 0 0 1 3 2.93 34.5 34.5 0 0 0 .73 6.07 37.465 37.465 0 0 0 3.63 7.07l.045.069a7.592 7.592 0 0 0 10.729 2.085 13.372 13.372 0 0 0 3.926-4.354A37.292 37.292 0 0 0 40.31 28a34.5 34.5 0 0 0 .73-6.07 3.021 3.021 0 0 1 3-2.93H57a1.955 1.955 0 0 1 1.41.59c.8.78.9 2.217-.42 3.4A4.209 4.209 0 0 1 55.178 24Z" class="colorc97458 svgShape"></path><path fill="#e58e68" d="M36.24 21A11.5 11.5 0 1 1 17 29.5a1.5 1.5 0 0 1 1.5-1.5h3a1.5 1.5 0 0 1 1.5 1.5 5.5 5.5 0 1 0 5.5-5.5 1.5 1.5 0 0 1-1.5-1.5v-3a1.5 1.5 0 0 1 1.5-1.5 5.5 5.5 0 1 0-5.5-5.5 1.5 1.5 0 0 1-1.5 1.5h-3a1.5 1.5 0 0 1-1.5-1.5A11.5 11.5 0 1 1 36.24 21Z" class="colore58e68 svgShape"></path><path fill="#5d7f89" d="M11 57V45a4 4 0 0 1 4-4h30a4 4 0 0 1 4 4v12Z" class="color5d7f89 svgShape"></path><rect width="44" height="4" x="8" y="55" fill="#527077" rx="1" class="color527077 svgShape"></rect><path fill="#373737" d="M57 18H44.04a4.009 4.009 0 0 0-4 3.9 34.3 34.3 0 0 1-.168 2.461A12.563 12.563 0 0 0 37.658 21a12.481 12.481 0 0 0-.747-17.739 1 1 0 0 0-1.348 1.478 10.484 10.484 0 0 1 0 15.523 1 1 0 0 0 0 1.476A10.5 10.5 0 1 1 18 29.5a.5.5 0 0 1 .5-.5h3a.5.5 0 0 1 .5.5 6.5 6.5 0 1 0 6.5-6.5.5.5 0 0 1-.5-.5v-3a.5.5 0 0 1 .5-.5 6.5 6.5 0 1 0-6.5-6.5.5.5 0 0 1-.5.5h-3a.5.5 0 0 1-.5-.5A10.512 10.512 0 0 1 28.5 2a10.393 10.393 0 0 1 4.279.912 1 1 0 1 0 .821-1.824A12.374 12.374 0 0 0 28.5 0 12.514 12.514 0 0 0 16 12.5a2.5 2.5 0 0 0 2.5 2.5h3a2.5 2.5 0 0 0 2.5-2.5 4.5 4.5 0 1 1 4.5 4.5 2.5 2.5 0 0 0-2.5 2.5v3a2.5 2.5 0 0 0 2.5 2.5 4.5 4.5 0 1 1-4.5 4.5 2.5 2.5 0 0 0-2.5-2.5h-.982a33.419 33.419 0 0 1-.559-5.106 4.006 4.006 0 0 0-4-3.894H3a3 3 0 0 0-3 3 4.005 4.005 0 0 0 2.329 3.634A2.99 2.99 0 0 0 2 26a4.005 4.005 0 0 0 2.329 3.634A2.99 2.99 0 0 0 4 31a4 4 0 0 0 4 4h5.291a15.551 15.551 0 0 0 2.817 5H15a5.006 5.006 0 0 0-5 5v9H9a2 2 0 0 0-2 2v2a2 2 0 0 0 2 2h42a2 2 0 0 0 2-2v-2a2 2 0 0 0-2-2h-1v-9a5.006 5.006 0 0 0-5-5h-1.108a15.551 15.551 0 0 0 2.817-5H52a4 4 0 0 0 4-4 2.99 2.99 0 0 0-.329-1.366A4.005 4.005 0 0 0 58 26a2.99 2.99 0 0 0-.329-1.366A4.005 4.005 0 0 0 60 21a3 3 0 0 0-3-3ZM14.948 33.684A1 1 0 0 0 14 33H8a2 2 0 0 1-2-2 1 1 0 0 1 1-1 1 1 0 0 0 0-2H6a2 2 0 0 1-2-2 1 1 0 0 1 1-1 1 1 0 0 0 0-2H4a2 2 0 0 1-2-2 1 1 0 0 1 1-1h12.96a2.012 2.012 0 0 1 2 1.961A35.411 35.411 0 0 0 18.484 27 2.5 2.5 0 0 0 16 29.5 12.493 12.493 0 0 0 21.742 40h-2.531c-.533-.272-2.702-1.635-4.263-6.316ZM51 58H9v-2h42Zm-3-13v9H12v-9a3 3 0 0 1 3-3h30a3 3 0 0 1 3 3Zm8-22h-1a1 1 0 0 0 0 2 1 1 0 0 1 1 1 2 2 0 0 1-2 2h-1a1 1 0 0 0 0 2 1 1 0 0 1 1 1 2 2 0 0 1-2 2h-6a1 1 0 0 0-.948.684c-1.57 4.707-3.752 6.058-4.259 6.316h-5.535A12.493 12.493 0 0 0 41 29.5v-.028a35.58 35.58 0 0 0 1.04-7.506 2.014 2.014 0 0 1 2-1.966H57a1 1 0 0 1 1 1 2 2 0 0 1-2 2Z" class="color373737 svgShape"></path><path fill="#373737" d="M23 46a1 1 0 0 0 1 1h12a1 1 0 0 0 0-2H24a1 1 0 0 0-1 1zm11 3h-8a1 1 0 0 0 0 2h8a1 1 0 0 0 0-2z" class="color373737 svgShape"></path></svg></g></svg>