<svg width="30" height="30" viewBox="0 0 30 30" fill="none" xmlns="http://www.w3.org/2000/svg">
<path d="M8.52941 22.5883C8.52941 22.5883 7.23529 22.5883 7.23529 21.2941C7.23529 20 8.52941 16.1177 15 16.1177C21.4706 16.1177 22.7647 20 22.7647 21.2941C22.7647 22.5883 21.4706 22.5883 21.4706 22.5883H8.52941ZM18.8824 10.9412C18.8824 11.9709 18.4733 12.9583 17.7452 13.6864C17.0172 14.4145 16.0297 14.8235 15 14.8235C13.9703 14.8235 12.9828 14.4145 12.2548 13.6864C11.5267 12.9583 11.1176 11.9709 11.1176 10.9412C11.1176 9.91153 11.5267 8.92404 12.2548 8.19595C12.9828 7.46787 13.9703 7.05884 15 7.05884C16.0297 7.05884 17.0172 7.46787 17.7452 8.19595C18.4733 8.92404 18.8824 9.91153 18.8824 10.9412Z" fill="#88919D"/>
<path d="M0.970588 20.2588C0.970588 20.2588 0 20.2588 0 19.2883C0 18.3177 0.970588 15.4059 5.82353 15.4059C10.6765 15.4059 11.6471 18.3177 11.6471 19.2883C11.6471 20.2588 10.6765 20.2588 10.6765 20.2588H0.970588ZM8.73529 11.5236C8.73529 12.2958 8.42852 13.0364 7.88246 13.5825C7.3364 14.1285 6.59578 14.4353 5.82353 14.4353C5.05128 14.4353 4.31066 14.1285 3.7646 13.5825C3.21854 13.0364 2.91176 12.2958 2.91176 11.5236C2.91176 10.7513 3.21854 10.0107 3.7646 9.46462C4.31066 8.91856 5.05128 8.61179 5.82353 8.61179C6.59578 8.61179 7.3364 8.91856 7.88246 9.46462C8.42852 10.0107 8.73529 10.7513 8.73529 11.5236Z" fill="#88919D"/>
<path d="M19.3235 20.2588C19.3235 20.2588 18.3529 20.2588 18.3529 19.2883C18.3529 18.3177 19.3235 15.4059 24.1764 15.4059C29.0294 15.4059 30 18.3177 30 19.2883C30 20.2588 29.0294 20.2588 29.0294 20.2588H19.3235ZM27.0882 11.5236C27.0882 12.2958 26.7814 13.0364 26.2354 13.5825C25.6893 14.1285 24.9487 14.4353 24.1764 14.4353C23.4042 14.4353 22.6636 14.1285 22.1175 13.5825C21.5714 13.0364 21.2647 12.2958 21.2647 11.5236C21.2647 10.7513 21.5714 10.0107 22.1175 9.46462C22.6636 8.91856 23.4042 8.61179 24.1764 8.61179C24.9487 8.61179 25.6893 8.91856 26.2354 9.46462C26.7814 10.0107 27.0882 10.7513 27.0882 11.5236Z" fill="#88919D"/>
</svg>
