<svg width="16" height="16" viewBox="0 0 16 16" fill="none" xmlns="http://www.w3.org/2000/svg">
<path fill-rule="evenodd" clip-rule="evenodd" d="M8 1C6.14348 1 4.36301 1.7375 3.05025 3.05025C1.7375 4.36301 1 6.14348 1 8C1 9.85652 1.7375 11.637 3.05025 12.9497C4.36301 14.2625 6.14348 15 8 15C9.85652 15 11.637 14.2625 12.9497 12.9497C14.2625 11.637 15 9.85652 15 8C15 6.14348 14.2625 4.36301 12.9497 3.05025C11.637 1.7375 9.85652 1 8 1ZM8 16C5.87827 16 3.84344 15.1571 2.34315 13.6569C0.842855 12.1566 1.207e-07 10.1217 9.5399e-08 8C7.00976e-08 5.87827 0.842855 3.84344 2.34315 2.34315C3.84344 0.842855 5.87827 1.207e-07 8 9.5399e-08C10.1217 7.00976e-08 12.1566 0.842855 13.6569 2.34315C15.1571 3.84344 16 5.87827 16 8C16 10.1217 15.1571 12.1566 13.6569 13.6569C12.1566 15.1571 10.1217 16 8 16ZM5.197 5.854C5.10311 5.76025 5.05032 5.63304 5.05022 5.50035C5.05013 5.36767 5.10275 5.24039 5.1965 5.1465C5.29025 5.05261 5.41746 4.99982 5.55015 4.99972C5.68283 4.99963 5.81011 5.05225 5.904 5.146L10 9.243L10 6.475C10 6.34239 10.0527 6.21521 10.1464 6.12145C10.2402 6.02768 10.3674 5.975 10.5 5.975C10.6326 5.975 10.7598 6.02768 10.8536 6.12145C10.9473 6.21521 11 6.34239 11 6.475L11 10.45C11 10.5826 10.9473 10.7098 10.8536 10.8036C10.7598 10.8973 10.6326 10.95 10.5 10.95L6.525 10.95C6.39239 10.95 6.26522 10.8973 6.17145 10.8036C6.07768 10.7098 6.025 10.5826 6.025 10.45C6.025 10.3174 6.07768 10.1902 6.17145 10.0964C6.26522 10.0027 6.39239 9.95 6.525 9.95L9.293 9.95L5.197 5.854Z" fill="#FF5E5B"/>
</svg>
