<svg width="17" height="16" viewBox="0 0 17 16" fill="none" xmlns="http://www.w3.org/2000/svg">
<g clipPath="url(#clip0_2250_370)">
<path fill-rule="evenodd" clip-rule="evenodd" d="M1.5 8C1.5 9.85652 2.2375 11.637 3.55025 12.9497C4.86301 14.2625 6.64348 15 8.5 15C10.3565 15 12.137 14.2625 13.4497 12.9497C14.7625 11.637 15.5 9.85652 15.5 8C15.5 6.14348 14.7625 4.36301 13.4497 3.05025C12.137 1.7375 10.3565 1 8.5 1C6.64348 1 4.86301 1.7375 3.55025 3.05025C2.2375 4.36301 1.5 6.14348 1.5 8ZM16.5 8C16.5 10.1217 15.6571 12.1566 14.1569 13.6569C12.6566 15.1571 10.6217 16 8.5 16C6.37827 16 4.34344 15.1571 2.84315 13.6569C1.34285 12.1566 0.5 10.1217 0.5 8C0.5 5.87827 1.34285 3.84344 2.84315 2.34315C4.34344 0.842855 6.37827 0 8.5 0C10.6217 0 12.6566 0.842855 14.1569 2.34315C15.6571 3.84344 16.5 5.87827 16.5 8ZM6.354 10.803C6.26025 10.8969 6.13304 10.9497 6.00035 10.9498C5.86767 10.9499 5.74039 10.8973 5.6465 10.8035C5.55261 10.7097 5.49982 10.5825 5.49972 10.4499C5.49963 10.3172 5.55225 10.1899 5.646 10.096L9.743 6H6.975C6.84239 6 6.71521 5.94732 6.62145 5.85355C6.52768 5.75979 6.475 5.63261 6.475 5.5C6.475 5.36739 6.52768 5.24021 6.62145 5.14645C6.71521 5.05268 6.84239 5 6.975 5H10.95C11.0826 5 11.2098 5.05268 11.3036 5.14645C11.3973 5.24021 11.45 5.36739 11.45 5.5L11.45 9.475C11.45 9.60761 11.3973 9.73479 11.3036 9.82855C11.2098 9.92232 11.0826 9.975 10.95 9.975C10.8174 9.975 10.6902 9.92232 10.5964 9.82855C10.5027 9.73479 10.45 9.60761 10.45 9.475L10.45 6.707L6.354 10.803Z" fill="#03CEA4"/>
</g>
<defs>
<clipPath id="clip0_2250_370">
<rect width="16" height="16" fill="white" transform="translate(0.5)"/>
</clipPath>
</defs>
</svg>
