<svg width="24" height="24" viewBox="0 0 24 24" fill="none" xmlns="http://www.w3.org/2000/svg">
<path d="M11.786 17.9537H12.9811C12.9811 17.9537 13.3424 17.9151 13.5261 17.7235C13.6961 17.5476 13.6899 17.2174 13.6899 17.2174C13.6899 17.2174 13.6661 15.6714 14.4112 15.4436C15.145 15.2195 16.0876 16.9378 17.0864 17.5994C17.8414 18.0995 18.4152 17.9898 18.4152 17.9898L21.0867 17.9537C21.0867 17.9537 22.4843 17.8705 21.8217 16.8113C21.768 16.7245 21.4355 16.028 19.8353 14.5965C18.1602 13.0975 18.3852 13.3409 20.4029 10.7489C21.6317 9.17033 22.123 8.20632 21.9692 7.7942C21.823 7.40137 20.9192 7.505 20.9192 7.505L17.9139 7.52187C17.9139 7.52187 17.6914 7.49295 17.5252 7.58815C17.3639 7.68214 17.2601 7.89904 17.2601 7.89904C17.2601 7.89904 16.7839 9.12092 16.1488 10.1596C14.81 12.3516 14.2737 12.4672 14.0549 12.3311C13.5461 12.0142 13.6736 11.0562 13.6736 10.3765C13.6736 8.25211 14.0074 7.36643 13.0223 7.13747C12.6948 7.06156 12.4548 7.01095 11.6185 7.00251C10.5459 6.99167 9.63709 7.00613 9.1233 7.24833C8.78078 7.40981 8.51701 7.7701 8.67827 7.79059C8.87703 7.8159 9.32707 7.90748 9.56583 8.22078C9.87461 8.62446 9.86336 9.53304 9.86336 9.53304C9.86336 9.53304 10.0409 12.0334 9.44958 12.3443C9.0433 12.5576 8.48701 12.1226 7.29317 10.1331C6.68187 9.1149 6.21934 7.98821 6.21934 7.98821C6.21934 7.98821 6.13058 7.77854 5.97182 7.66647C5.77931 7.53031 5.50929 7.48693 5.50929 7.48693L2.65158 7.5038C2.65158 7.5038 2.2228 7.51585 2.06528 7.69539C1.92527 7.85566 2.05403 8.18583 2.05403 8.18583C2.05403 8.18583 4.2917 13.2312 6.82438 15.775C9.1483 18.1067 11.786 17.9537 11.786 17.9537Z" fill="white"/>
</svg>
